<svg width="20" height="20" viewBox="0 0 20 20" fill="none" xmlns="http://www.w3.org/2000/svg">
<g clip-path="url(#clip0_871_36838)">
<path d="M5.87695 4.3225L11.5873 16.6626L13.0914 15.9383L7.24186 3.51489L5.87695 4.3225Z" fill="#2B3990"/>
<path d="M5.23633 4.8519L5.87694 4.32275L11.5873 16.6628L10.8633 16.8298L5.23633 4.8519Z" fill="#262262"/>
<path d="M8.41135 3.12476L14.1494 15.4648L13.0908 15.9385L7.24121 3.51506L8.41135 3.12476Z" fill="#3764A5"/>
<path d="M9.05174 3.15291L8.41113 3.12476L14.1492 15.4648L14.6506 15.0749L9.05174 3.15291Z" fill="#2B3990"/>
<path d="M10.4448 4.51733C10.4448 4.51733 10.2223 5.9937 11.6424 7.49784L11.2802 7.97145L9.69238 4.51733H10.4448Z" fill="#3764A5"/>
<path d="M14.558 19.5422C15.8241 18.9631 16.6505 18.0564 16.4038 17.517C16.1571 16.9777 14.9307 17.0099 13.6646 17.5891C12.3985 18.1682 11.5721 19.0749 11.8188 19.6143C12.0655 20.1536 13.2919 20.1214 14.558 19.5422Z" fill="#262262"/>
<path d="M10.8633 16.8298L11.4202 17.2475L12.1723 18.6683L15.3479 17.2197L14.6514 15.7433V15.075L10.8633 16.8298Z" fill="#262262"/>
<path d="M5.23494 4.85174L5.43009 4.0719L4.92871 2.92991L7.82553 1.59277L8.41059 2.67922L9.0512 3.15283L5.23494 4.85174Z" fill="#262262"/>
<path d="M6.41008 2.64561C7.68042 2.07577 8.48494 1.11157 8.20702 0.492028C7.92911 -0.127517 6.674 -0.167806 5.40366 0.40204C4.13333 0.971886 3.32881 1.93608 3.60673 2.55562C3.88464 3.17517 5.13975 3.21546 6.41008 2.64561Z" fill="#262262"/>
</g>
<defs>
<clipPath id="clip0_871_36838">
<rect width="12.8959" height="20" fill="white" transform="translate(3.55176)"/>
</clipPath>
</defs>
</svg>
