<svg fill="none" xmlns="http://www.w3.org/2000/svg" viewBox="0 0 231 354"><g clip-path="url(#a)"><path d="M9.76 305.411c-5.125 6.113-11.791 15.82-8.47 24.376 1.556 4.091 5.678 8.042 5.78 12.561.085 4.247-2.52 7.568-4.349 11.037 2.271.148 4.496.444 6.596.63-.101-4.246 2.629-8.221 2.333-12.444-.287-3.843-2.41-7.981-4.223-11.426-1.976-3.812-3.236-7.615-1.447-11.838 1.914-4.519 6.223-7.903 8.743-12.017a14.972 14.972 0 0 0-4.963-.887v.008Z" fill="#151515"/><path d="M116.731 210.255H50.424s-3.555 34.822 29.634 43.028c0 0 5.849-5.546 36.704-5.546 30.856 0 36.705 5.546 36.705 5.546 33.157-8.175 29.634-43.028 29.634-43.028h-66.37Z" fill="#253D45"/><path d="M53.224 210.255s-21.84-.295-23.902 21.841c-2.061 22.136-17.4 54.586-23.606 64.938-6.207 10.353-2.956 24.804 19.491 11.823 11.963-6.93 20.674-14.981 30.794-23.039 8.866-7.047 20.619-19.344 24.111-28.918 7.312-20.324 36.681-19.445 36.681-19.445s-34.588-17.726-63.507-27.184l-.062-.016Z" fill="#253D45"/><path d="M63.786 278.382a9.207 9.207 0 0 0 .871-4.923c-.21-5.134-.388-10.112-1.376-15.222-1.556-7.996-8.828-13.93-11.278-21.693-1.494-4.713.062-9.574 2.924-13.456 2.862-3.881 6.86-5.584 10.446-8.555a296.886 296.886 0 0 0-12.118-4.294s-21.84-.295-23.902 21.841c-2.061 22.136-17.4 54.601-23.606 64.954-6.207 10.352-2.956 24.804 19.484 11.822 11.97-6.93 20.681-14.98 30.8-23.038a83.726 83.726 0 0 0 6.223-5.445 8.619 8.619 0 0 0 1.556-1.999l-.024.008Z" fill="#3A50A0"/><path d="M51.793 235.735c-1.105-4.472.42-9.007 3.11-12.647 2.925-3.943 6.861-5.584 10.447-8.555a296.886 296.886 0 0 0-12.118-4.294s-11.784-.117-18.862 8.595c5.258 6.323 11.224 11.667 17.43 16.886l-.007.015Z" fill="#596C72" opacity=".55"/><path d="M220.404 305.411c5.134 6.113 11.791 15.804 8.47 24.36-1.555 4.091-5.67 8.043-5.779 12.562-.085 4.246 2.52 7.568 4.348 11.037-2.263.147-4.496.443-6.596.63.125-4.247-2.629-8.222-2.333-12.445.296-3.842 2.419-7.98 4.223-11.426 1.976-3.811 3.236-7.615 1.447-11.838-1.913-4.519-6.222-7.903-8.742-12.017a14.995 14.995 0 0 1 4.962-.887v.024Z" fill="#151515"/><path d="M179.577 210.255s21.849-.295 23.902 21.841c2.054 22.136 17.4 54.586 23.606 64.938 6.207 10.353 2.956 24.804-19.484 11.823-11.97-6.93-20.681-14.981-30.8-23.039-8.86-7.047-20.62-19.344-24.112-28.918-7.312-20.324-36.673-19.445-36.673-19.445s34.581-17.726 63.499-27.184l.062-.016Z" fill="#253D45"/><path d="M169.046 278.382a9.208 9.208 0 0 1-.871-4.923c.21-5.134.389-10.112 1.377-15.222 1.555-7.996 8.835-13.93 11.278-21.693 1.493-4.713-.055-9.574-2.925-13.456-2.87-3.881-6.86-5.584-10.446-8.555a297.146 297.146 0 0 1 12.118-4.294s21.849-.295 23.902 21.841c2.054 22.136 17.4 54.586 23.606 64.938 6.207 10.353 2.956 24.804-19.484 11.823-11.97-6.93-20.681-14.981-30.8-23.039a84.014 84.014 0 0 1-6.223-5.444 8.618 8.618 0 0 1-1.555-1.999l.023.023Z" fill="#3A50A0"/><path d="M177.936 223.089c2.746 3.694 4.27 8.291 3.111 12.825 6.9-4.149 13.36-8.989 19.282-14.443-6.627-11.395-20.682-11.247-20.682-11.247a252.268 252.268 0 0 0-12.118 4.293c3.586 2.956 7.522 4.628 10.446 8.556l-.039.016Z" fill="#596C72" opacity=".55"/><path d="M49.016 201.746c.661 6.899 2.481 12.623 4.955 15.283 8.268 8.891 117.315 8.891 125.575 0 2.481-2.66 4.301-8.384 4.955-15.283-26.741 5.258-108.713 5.258-135.485 0Z" fill="#596C72" opacity=".32"/><path d="M141.076 68.097c-1.859-4.87-25.799-26.648-25.488-30.42.233-3.197 11.713-36.316 9.162-37.638-2.038-1.05-27.417 32.139-28.537 34.791-1.51 3.625 6.611 38.027 3.788 44.218-3.174 7-29.666 44.646-30.21 46.59-12.57 44.257-22.735 83.373-22.735 83.528 0 6.471 30.669 11.729 68.532 11.729s68.571-5.258 68.571-11.729c0-.194-33.446-83.287-35.966-85.706-3.251-3.111-5.188-50.331-7.078-55.363h-.039Z" fill="#3A50A0"/><path d="M123.708.544c-5.18 3.936-26.492 31.89-27.495 34.286-1.51 3.624 6.611 38.019 3.788 44.218-3.174 7-29.666 44.645-30.21 46.59-12.297 43.246-22.276 81.622-22.735 83.45.225.7.38 1.206.459 1.447 2.286 3.344 12.841 6.269 28.117 8.136 38.019 4.876 4.371-37.164-2.551-92.45-.506-4.083 47.842-37.707 47.531-49.437-.155-6.035-18.255 1.603-21.39-41.838C98.803 29.65 124.75 0 124.75 0l-1.042.506v.038Z" fill="#253D45"/><path d="M141.076 68.097c-1.859-4.87-25.799-26.648-25.488-30.428.233-3.189 11.713-36.308 9.162-37.63 0 0-6.028 19.087-9.162 24.812-3.135 5.725-12.531 9.162-10.407 14.576 2.512 6.347 7 11.294 29.898 30.427 4.869 4.092-15.976 38.369-10.329 43.744 5.647 5.374 17.174 16.015 14.74 18.084-4.099 3.461-21.079-8.261-16.98 10.788 4.099 19.048 12.881 77.92 12.919 77.959 15.004-.778 27.846-2.419 36.557-4.558 4.667-1.603 8.929-3.741 12.141-6.666 0-.194-33.445-83.295-35.965-85.706-3.251-3.111-5.188-50.339-7.078-55.364l-.008-.038Z" fill="#78A1DD"/><path d="M96.213 34.83c-.856 2.1 1.47 14.412 3.049 25.667.31-.544.544-1.019.777-1.408 1.626-3.5-.31-16.123-1.975-27.036a27.956 27.956 0 0 0-1.797 2.738l-.054.039Z" fill="#000013"/><path d="M44.194 219.791c-.98-3.111-2.21-6.759-3.57-9.007a7.695 7.695 0 0 0-1.362 1.136c-1.936 2.068-3.826 4.091-4.666 6.766-9.108 28.53-18.613 57.379-30.467 84.913a6.338 6.338 0 0 0-.731 2.979c.202 2.139 2.66 3.515 4.838 3.321 2.178-.195 4.076-1.509 5.763-2.878 10.057-8.136 17.019-19.445 21.717-31.4 4.697-11.954 7.272-24.547 9.831-37.093.576-2.8 1.149-5.605 1.719-8.416-1.167-4.153-1.96-6.837-3.072-10.321Z" fill="#78A1DD"/><path d="M46.068 219.269c-1.027-3.204-2.038-6.557-3.764-9.465a1.958 1.958 0 0 0-2.66-.701 19.08 19.08 0 0 0-3.602 3.477 17.192 17.192 0 0 0-2.8 4.224 52.515 52.515 0 0 0-1.781 5.273c-.568 1.781-1.143 3.555-1.711 5.336-2.36 7.301-4.76 14.594-7.203 21.879-4.9 14.499-10.111 28.911-15.828 43.106a607.615 607.615 0 0 1-4.332 10.376c-.7 1.649-1.284 3.368-.661 5.141a5.788 5.788 0 0 0 3.033 3.236c3.236 1.493 6.611.272 9.334-1.742 2.65-2 5.115-4.234 7.366-6.674 9.333-9.979 15.252-22.556 19.258-35.483 2.224-7.179 3.889-14.522 5.444-21.872.778-3.694 1.556-7.389 2.272-11.091l.56-2.746c.131-.468.217-.947.256-1.431a6.99 6.99 0 0 0-.42-1.758 345.428 345.428 0 0 0-1.377-4.745 155.327 155.327 0 0 0-1.345-4.34c-.778-2.372-4.511-1.361-3.75 1.035 1.098 3.422 2.101 6.868 3.112 10.329v-1.034c-2.699 13.222-5.079 26.6-9.334 39.426-3.717 11.169-9.092 22.02-17.111 30.731a56.948 56.948 0 0 1-6.41 5.997c-1.64 1.307-4.246 3.111-6.323 1.742-.886-.583-.972-1.19-.606-2.248.52-1.555 1.275-3.056 1.905-4.565a415.146 415.146 0 0 0 3.89-9.505c4.985-12.725 9.628-25.59 14.008-38.54a1368.367 1368.367 0 0 0 6.432-19.391l3.111-9.777c.506-1.555.926-3.189 1.556-4.721a12.177 12.177 0 0 1 2.17-3.414 15.863 15.863 0 0 1 2.815-2.87l-2.66-.7c1.556 2.636 2.45 5.646 3.376 8.555.793 2.357 4.55 1.354 3.78-1.05ZM181.825 217.006c.972-3.049 4.667-7 8.136-5.445.495.32.949.699 1.353 1.128 1.914 2.053 3.788 4.052 4.667 6.712 9.015 28.305 18.434 56.928 30.179 84.252.483.907.734 1.92.731 2.948-.202 2.123-2.637 3.492-4.799 3.297-2.162-.194-4.037-1.501-5.709-2.854-9.964-8.074-16.871-19.313-21.522-31.151-4.651-11.838-7.226-24.423-9.769-36.891l-1.509-11.021c-.404-3.781-2.637-8.23-1.758-10.975Z" fill="#78A1DD"/><path d="M185.574 218.041a2.13 2.13 0 0 0 .156-.444c0 .086-.428.856-.086.257.148-.264.28-.537.444-.778.163-.241.186-.303.287-.451.101-.148.483-.513.109-.148-.373.366.039 0 .132-.132l.475-.49c.145-.11.28-.233.404-.366 0 0-.606.428-.248.203.357-.226.598-.366.894-.553.296-.186-.327.179-.342.133.157-.059.318-.109.482-.148.653-.249-.226.109-.303 0-.078-.109.56 0 .614 0 .467-.086-.723-.21-.28 0 .125.054.638.288.156.054 0 0-.553-.303-.545-.311.159.117.305.25.436.397.645.622 1.244 1.307 1.828 1.983.241.28.474.568.715.856-.575-.685.21.319.311.474.203.304.389.615.568.934.101.186.179.381.28.56.226.389-.187-.607 0 .093 2.37 7.467 4.781 14.923 7.234 22.37 4.931 14.957 10.111 29.852 15.828 44.529 1.4 3.603 2.839 7.192 4.317 10.764a514.736 514.736 0 0 0 3.15 7.475c.054.132.256.731 0 .047.062.163.124.326.179.49.054.163.124.435.194.653.148.467 0-.311 0-.42-.047-.7.047.101 0 0-.109.311-.101.311 0 0s.125-.319-.039 0l.226-.303c-.086.101-.498.513-.078.116.42-.396 0 0-.14.055-.14.054-.591.124-.124.085.692-.062-.584 0-.553.101-.077-.194.903 0 .249-.054-.109 0-.848-.078-.326 0 .521.078-.148-.047-.273-.086l-.459-.132c-.676-.202-.101-.046 0 0l-.575-.295c-.381-.21-.778-.444-1.105-.685-.186-.124-.357-.256-.536-.381-.311-.218-.265-.21 0 0a65.112 65.112 0 0 1-7.374-7.055 49.46 49.46 0 0 1-1.447-1.687 15.178 15.178 0 0 1-.777-.996l-.389-.498c.326.42.147.195-.07-.101a69.485 69.485 0 0 1-2.839-4.044 83.51 83.51 0 0 1-4.963-8.751c-.777-1.555-1.446-3.111-2.131-4.666-.179-.405.062.155.086.194l-.249-.583a57.163 57.163 0 0 1-.475-1.183c-.357-.894-.7-1.796-1.034-2.699a144.014 144.014 0 0 1-3.5-11.021c-2.061-7.444-3.625-15.004-5.165-22.556-.622-3.049-.91-6.223-1.33-9.264-.093-.684-.194-1.361-.288-2.038-.124-.964.086.638 0-.163a20.435 20.435 0 0 0-.319-2.077c-.326-1.633-.832-3.22-1.221-4.838-.077-.334-.155-.669-.217-1.003a2.056 2.056 0 0 1-.102-.56c-.108.342.055.708 0 .233v-1.011c0-.124.047-.575 0 .047-.046.622 0 0 .07-.148a3.887 3.887 0 0 0-2.714-4.783 3.887 3.887 0 0 0-4.784 2.714c-1.05 3.664.584 7.413 1.369 10.959.142.387.22.794.234 1.206.093-.661-.062-.475 0-.156.062.319.109.848.171 1.276l.327 2.411.707 5.134a210.897 210.897 0 0 0 4.908 23.17c3.889 15.09 9.661 29.899 19.826 41.908a60.407 60.407 0 0 0 7.693 7.63c3.305 2.723 7.467 5.398 11.939 3.889a8.165 8.165 0 0 0 5.18-4.791c.98-2.504 0-4.947-1.011-7.249l-.583-1.369-.296-.692c-.303-.708-.109-.257-.047-.101a396.988 396.988 0 0 1-1.291-3.112 631.06 631.06 0 0 1-2.395-5.887c-6.285-15.673-11.877-31.602-17.19-47.625-2.668-8.043-5.125-16.163-7.84-24.197a18.276 18.276 0 0 0-3.204-5.671 21.748 21.748 0 0 0-4.208-4.239c-3.594-2.597-8.642-.497-11.263 2.474a14.586 14.586 0 0 0-2.948 5.04 3.881 3.881 0 0 0 .367 2.954 3.888 3.888 0 0 0 2.348 1.829 3.985 3.985 0 0 0 4.783-2.706Z" fill="#78A1DD"/><path d="M163.461 166.115c-28.343-7.078-71.044-7.078-99.387 0-28.343 7.078-27.083 53.116-18.154 62.558 8.93 9.443 126.782 9.435 135.695 0 8.914-9.435 10.189-55.473-18.154-62.543v-.015Z" fill="#3A50A0"/><path d="M159.129 197.709c-26.095-3.306-65.413-3.306-91.508 0-26.095 3.305-24.89 24.889-16.715 29.268 8.175 4.379 116.724 4.418 124.938 0 8.214-4.418 9.38-25.955-16.715-29.268Z" fill="#78A1DD"/><path d="M146.653 199.77a37.379 37.379 0 0 1 2.73-6.401c.303.94.411 1.933.319 2.917a12.999 12.999 0 0 1 6.044-4.201 47.414 47.414 0 0 1-1.595 5.445 18.246 18.246 0 0 1 6.471-2.162 6.736 6.736 0 0 0 .172 4.317M37.458 266.785a37.007 37.007 0 0 1 5.561 4.177 7.208 7.208 0 0 1-2.909-.389 12.998 12.998 0 0 1 2.637 6.876 51.556 51.556 0 0 1-4.877-2.886c.612 2.211.802 4.517.56 6.798a6.746 6.746 0 0 0-4.239-.871" fill="#78A1DD"/></g><defs><clipPath id="a"><path fill="#fff" d="M.403 0h230.353v354H.403z"/></clipPath></defs></svg>