<svg width="46" height="54" viewBox="0 0 46 54" fill="none" xmlns="http://www.w3.org/2000/svg">
<path d="M43.5766 23.6701C43.1664 22.7958 42.3509 22.1949 41.4149 22.0544C41.412 22.0544 41.4092 22.0544 41.4063 22.0534C41.4044 22.0534 41.4025 22.0534 41.4016 22.0534C40.5443 21.9252 39.6871 21.7961 38.8298 21.668C38.8364 21.7866 38.8421 21.9053 38.8488 22.024H7.57909C6.47309 22.024 5.46868 22.6648 4.99875 23.6664C2.74215 28.4729 2.22855 34.2611 4.27535 40.2154C6.32974 46.1925 11.0888 50.8491 17.0925 52.8228C31.8967 57.6911 45.5816 46.7963 45.5816 32.7051C45.5816 29.4754 44.862 26.4138 43.5756 23.6711L43.5766 23.6701Z" fill="#6A7F84"/>
<path d="M10.9566 22.0164C10.3481 20.4927 10.013 18.8313 10.013 17.0902C10.013 9.75458 15.9597 3.80879 23.2944 3.80879C30.629 3.80879 36.5758 9.75553 36.5758 17.0902C36.5758 18.8304 36.2407 20.4927 35.6321 22.0164H39.6991C40.1681 20.4566 40.4197 18.8028 40.4197 17.0902C40.4206 7.65177 32.7689 0 23.3304 0C13.892 0 6.24023 7.65177 6.24023 17.0902C6.24023 18.8028 6.49276 20.4566 6.96079 22.0164H10.9566Z" fill="#AAB6BC"/>
<path d="M22.5712 3.82902C22.332 3.81573 22.0909 3.80908 21.8478 3.80908C14.5122 3.80908 8.56641 9.75581 8.56641 17.0905C8.56641 18.8307 8.90153 20.493 9.51006 22.0167H10.9559C10.3474 20.493 10.0123 18.8316 10.0123 17.0905C10.0123 9.9979 15.5717 4.20401 22.5712 3.82807V3.82902Z" fill="#829499"/>
<path d="M23.3308 0C23.0887 0 22.8476 0.0056961 22.6074 0.0151896C31.7107 0.39398 38.9742 7.89385 38.9742 17.0902C38.9742 18.8028 38.7217 20.4566 38.2537 22.0164H39.6995C40.1685 20.4566 40.4201 18.8028 40.4201 17.0902C40.421 7.65177 32.7693 0 23.3308 0Z" fill="#829499"/>
<path d="M36.4017 19.2212C36.245 20.1924 35.984 21.1284 35.6289 22.0161H39.6959C39.9674 21.1132 40.1649 20.1791 40.2845 19.2212H36.4017Z" fill="#829499"/>
<path d="M6.37109 19.2212C6.49071 20.18 6.68818 21.1142 6.95969 22.0161H10.9555C10.6005 21.1275 10.3394 20.1914 10.1827 19.2212H6.37109Z" fill="#829499"/>
<path d="M2.42844 23.2791C0.171833 28.0857 -0.341765 33.8738 1.70503 39.8282C3.75943 45.8053 8.51852 50.4618 14.5222 52.4355C29.3264 57.3038 43.0113 46.4091 43.0113 32.3179C43.0113 29.0882 42.2917 26.0265 41.0053 23.2838C40.5344 22.2804 39.5309 21.6367 38.4221 21.6367H5.00877C3.90278 21.6367 2.89837 22.2775 2.42844 23.2791Z" fill="#94A3A8"/>
<path d="M6.25239 29.921C4.47236 32.957 4.06699 36.612 5.68184 40.3724C7.30238 44.147 11.0561 47.0871 15.7924 48.3346C27.4704 51.4086 38.2664 44.5286 38.2664 35.6304C38.2664 33.5902 37.6987 31.6573 36.6838 29.9248C36.3126 29.2915 35.5209 28.8843 34.6465 28.8843H8.2878C7.41535 28.8843 6.62264 29.2887 6.25239 29.921Z" fill="#84969B"/>
<path d="M25.0826 37.3552C25.3246 36.8559 25.4405 36.2749 25.392 35.6559C25.2477 33.7951 23.6804 32.2942 21.8889 32.3028C20.0985 32.3113 18.7637 33.8265 18.907 35.6872C18.9545 36.3062 19.1605 36.8853 19.4795 37.3827C19.3599 40.5014 19.2403 43.62 19.1206 46.7395C19.602 47.1031 20.9415 48.0221 22.8003 48.1076C25.0389 48.211 26.5018 47.0348 26.8873 46.7025C26.2854 43.5867 25.6835 40.4719 25.0816 37.3562L25.0826 37.3552Z" fill="#6A7F84"/>
<path d="M24.6992 37.2237C24.985 36.7348 25.1492 36.1662 25.1492 35.5586C25.1492 33.733 23.6692 32.2529 21.8436 32.2529C20.018 32.2529 18.5379 33.733 18.5379 35.5586C18.5379 36.1662 18.7022 36.7348 18.9879 37.2237C18.6205 40.2825 18.2522 43.3404 17.8848 46.3992C18.3461 46.7581 19.6392 47.6656 21.5274 47.7587C23.8002 47.8697 25.3837 46.7239 25.8033 46.3992C25.4359 43.3404 25.0676 40.2825 24.7002 37.2237H24.6992Z" fill="#AAB6BC"/>
<path d="M19.1888 35.604C19.2562 36.3226 19.6236 36.8144 19.7859 37.008C19.409 40.0697 19.0312 43.1314 18.6543 46.1921C18.9334 46.4436 19.5002 46.8822 20.3375 47.0721C20.8036 47.1784 21.2118 47.1746 21.508 47.1471C21.1938 47.0617 20.7267 46.8889 20.2577 46.5262C20.0033 46.3288 19.8097 46.1228 19.6663 45.9452C20.0366 42.9453 20.4068 39.9444 20.777 36.9444C19.9416 35.7331 19.8505 34.3613 20.4922 33.5667C20.6289 33.3977 20.9109 33.1148 21.4473 32.9448C21.2062 32.9562 20.5919 33.0198 20.0385 33.4736C19.0844 34.2568 19.1783 35.491 19.1897 35.604H19.1888Z" fill="#D6E1E5"/>
<path d="M17.1509 48.3346C12.4146 47.0881 8.6609 44.147 7.04036 40.3724C5.42551 36.612 5.83088 32.957 7.61092 29.921C7.98211 29.2887 8.77387 28.8843 9.64632 28.8843H8.2878C7.41535 28.8843 6.62264 29.2887 6.25239 29.921C4.47236 32.957 4.06699 36.612 5.68183 40.3724C7.30238 44.147 11.0561 47.0871 15.7924 48.3346C17.9626 48.9061 20.1015 49.133 22.1474 49.0675C20.5211 49.0162 18.8455 48.7798 17.1509 48.3346Z" fill="#6A7F84"/>
<path d="M8.41722 26.3501C9.00081 25.4059 8.7085 24.1674 7.76433 23.5838C6.82016 23.0002 5.58167 23.2925 4.99808 24.2367C4.4145 25.1809 4.70681 26.4194 5.65098 27.003C6.59515 27.5866 7.83364 27.2942 8.41722 26.3501Z" fill="#AAB6BC"/>
<path d="M6.70658 24.5696C6.70658 24.9693 6.38285 25.293 5.98317 25.293C5.58349 25.293 5.25977 24.9693 5.25977 24.5696C5.25977 24.1699 5.58349 23.8462 5.98317 23.8462C6.38285 23.8462 6.70658 24.1699 6.70658 24.5696Z" fill="#D6E1E5"/>
<path d="M8.12813 23.8701C8.13572 23.9252 8.14332 23.9802 8.14996 24.0353C8.1623 24.3552 8.0949 24.6533 7.94965 24.9296C7.85566 25.2172 7.69617 25.4669 7.46928 25.6767C7.25852 25.9027 7.00979 26.0631 6.72214 26.1571C6.44588 26.3024 6.14778 26.3688 5.82785 26.3574C5.49653 26.3517 5.19179 26.2948 4.89844 26.1704C5.22406 26.8416 5.91139 27.3039 6.7079 27.3039C7.81769 27.3039 8.71767 26.4039 8.71767 25.2941C8.71767 24.7378 8.49173 24.2347 8.12718 23.8711L8.12813 23.8701Z" fill="#829499"/>
<path d="M37.6723 27.1491C38.6978 26.7243 39.1848 25.5486 38.76 24.5232C38.3353 23.4977 37.1596 23.0107 36.1341 23.4355C35.1087 23.8602 34.6217 25.0359 35.0465 26.0614C35.4712 27.0869 36.6469 27.5738 37.6723 27.1491Z" fill="#AAB6BC"/>
<path d="M36.9038 24.5696C36.9038 24.9693 36.5801 25.293 36.1804 25.293C35.7808 25.293 35.457 24.9693 35.457 24.5696C35.457 24.1699 35.7808 23.8462 36.1804 23.8462C36.5801 23.8462 36.9038 24.1699 36.9038 24.5696Z" fill="#D6E1E5"/>
<path d="M38.3234 23.8701C38.331 23.9252 38.3386 23.9802 38.3453 24.0353C38.3576 24.3552 38.2902 24.6533 38.145 24.9296C38.051 25.2172 37.8915 25.4669 37.6646 25.6767C37.4548 25.9027 37.2051 26.0631 36.9175 26.1571C36.6412 26.3024 36.3431 26.3688 36.0232 26.3574C35.6918 26.3517 35.3871 26.2948 35.0938 26.1704C35.4194 26.8416 36.1067 27.3039 36.9032 27.3039C38.013 27.3039 38.913 26.4039 38.913 25.2941C38.913 24.7378 38.687 24.2347 38.3225 23.8711L38.3234 23.8701Z" fill="#829499"/>
<path d="M23.7453 26.351C24.3289 25.4069 24.0366 24.1684 23.0925 23.5848C22.1483 23.0012 20.9098 23.2935 20.3262 24.2377C19.7426 25.1819 20.0349 26.4204 20.9791 27.0039C21.9233 27.5875 23.1618 27.2952 23.7453 26.351Z" fill="#AAB6BC"/>
<path d="M22.0386 24.5696C22.0386 24.9693 21.7149 25.293 21.3152 25.293C20.9155 25.293 20.5918 24.9693 20.5918 24.5696C20.5918 24.1699 20.9155 23.8462 21.3152 23.8462C21.7149 23.8462 22.0386 24.1699 22.0386 24.5696Z" fill="#D6E1E5"/>
<path d="M23.4563 23.8701C23.4638 23.9252 23.4714 23.9802 23.4781 24.0353C23.4904 24.3552 23.423 24.6533 23.2778 24.9296C23.1838 25.2172 23.0243 25.4669 22.7974 25.6767C22.5866 25.9027 22.3379 26.0631 22.0503 26.1571C21.774 26.3024 21.4759 26.3688 21.156 26.3574C20.8247 26.3517 20.5199 26.2948 20.2266 26.1704C20.5522 26.8416 21.2395 27.3039 22.036 27.3039C23.1458 27.3039 24.0458 26.4039 24.0458 25.2941C24.0458 24.7378 23.8199 24.2347 23.4553 23.8711L23.4563 23.8701Z" fill="#829499"/>
<path d="M8.54883 11.1584C9.50482 9.69351 10.8539 7.92488 12.7155 6.16003C15.1383 3.8626 17.562 2.39301 19.3961 1.47119C18.1012 1.73511 15.0794 2.53541 12.3348 5.14138C9.95482 7.40083 8.9561 9.90522 8.54883 11.1593V11.1584Z" fill="#D6E1E5"/>
<path d="M37.5692 17.8286C38.116 16.264 38.1929 14.5277 37.7125 12.9413C37.2321 11.3549 36.1841 9.93471 34.7695 9.0708C35.8233 9.71351 36.5287 11.9739 36.8837 13.0647C37.3831 14.597 37.6195 16.2166 37.5682 17.8286H37.5692Z" fill="#D6E1E5"/>
</svg>
