<svg fill="none" xmlns="http://www.w3.org/2000/svg" viewBox="0 0 39 54"><g clip-path="url(#a)"><g clip-path="url(#b)"><path d="m16.527 34.11 5.935 19.925 4.876-6.995 8.054 2.968-6.359-19.288-12.506 3.39Z" fill="#CD3414"/><path d="m19.87 39.664-.626.191 3.968 13.003.626-.191-3.968-13.003ZM28.923 33.799l-.624.197 4.876 15.473.624-.197L28.923 33.8Z" fill="#FFCE45" opacity=".7"/><path d="m9.322 31.99-6.36 18.441 8.69-2.967 4.452 6.783 7.419-19.712L9.322 31.99Z" fill="#FE5629"/><path d="M10.921 31.258 4.984 49.485l.623.203 5.936-18.228-.622-.202ZM21.52 33.369l-6.786 19.288.618.217 6.785-19.288-.618-.217Z" fill="#FFCE45" opacity=".7"/><path d="M-.005 19.061c0-.89 2.172-1.617 2.295-2.475.124-.879-1.754-2.185-1.51-3.02.25-.848 2.538-.933 2.901-1.726.367-.801-1.065-2.587-.592-3.323.476-.74 2.696-.175 3.27-.837.576-.664-.297-2.78.367-3.357.662-.574 2.633.59 3.374.113.735-.473.491-2.75 1.293-3.118.793-.363 2.356 1.31 3.204 1.061.834-.243 1.245-2.497 2.124-2.622.857-.122 1.883 1.924 2.774 1.924S21.412-.365 22.27-.243c.878.125 1.29 2.379 2.124 2.624.849.249 2.412-1.424 3.204-1.061.802.367.559 2.644 1.294 3.118.74.476 2.711-.687 3.374-.113.663.576-.21 2.693.366 3.356.574.662 2.794.097 3.27.838.474.735-.959 2.52-.592 3.323.363.793 2.652.878 2.901 1.726.245.835-1.634 2.14-1.51 3.02.123.857 2.295 1.584 2.295 2.475 0 .89-2.171 1.618-2.294 2.475-.125.879 1.754 2.186 1.509 3.02-.25.848-2.538.933-2.9 1.726-.367.802 1.064 2.587.591 3.323-.476.74-2.695.175-3.27.838-.576.663.297 2.78-.366 3.356-.662.574-2.634-.59-3.374-.114-.736.474-.492 2.751-1.294 3.119-.793.363-2.355-1.31-3.204-1.061-.834.245-1.245 2.498-2.124 2.623-.858.122-1.884-1.923-2.775-1.923-.89 0-1.917 2.045-2.774 1.923-.879-.125-1.29-2.378-2.124-2.623-.85-.25-2.412 1.424-3.205 1.06-.802-.366-.558-2.644-1.293-3.117-.74-.477-2.711.687-3.374.113-.664-.576.21-2.693-.366-3.357-.574-.662-2.794-.097-3.27-.837-.474-.736.958-2.52.591-3.323-.363-.793-2.651-.878-2.9-1.727-.245-.834 1.634-2.14 1.509-3.019-.122-.857-2.295-1.584-2.295-2.475v-.002Z" fill="#FCAB28"/><path d="M19.496 34.747c8.663 0 15.685-7.023 15.685-15.686 0-8.662-7.022-15.685-15.685-15.685S3.811 10.399 3.811 19.061c0 8.663 7.022 15.686 15.685 15.686Z" fill="#FFCE45"/><path d="M19.497 35.064a15.895 15.895 0 0 1-11.315-4.687A15.898 15.898 0 0 1 3.494 19.06c0-4.274 1.665-8.293 4.688-11.315a15.898 15.898 0 0 1 11.315-4.688c4.274 0 8.294 1.665 11.316 4.688A15.898 15.898 0 0 1 35.5 19.06c0 4.274-1.664 8.294-4.687 11.316a15.898 15.898 0 0 1-11.316 4.687Zm0-31.37c-8.473 0-15.367 6.894-15.367 15.367 0 8.474 6.894 15.367 15.367 15.367 8.474 0 15.367-6.893 15.367-15.367 0-8.473-6.893-15.367-15.367-15.367Z" fill="#FCAB28"/><path d="M19.494 30.295c6.204 0 11.233-5.03 11.233-11.234S25.697 7.828 19.494 7.828c-6.205 0-11.234 5.03-11.234 11.233 0 6.205 5.03 11.234 11.234 11.234Z" fill="#FFD733"/><path d="M28.82 14.61c0-.715-.07-1.413-.198-2.092a11.217 11.217 0 0 0-9.128-4.69c-6.205 0-11.234 5.03-11.234 11.233 0 .716.07 1.414.198 2.093a11.217 11.217 0 0 0 9.128 4.69c6.205 0 11.234-5.03 11.234-11.234Z" fill="#FFE266"/><path d="M19.497 30.623c-6.376 0-11.561-5.186-11.561-11.56 0-6.375 5.185-11.563 11.56-11.563 6.376 0 11.562 5.187 11.562 11.561 0 6.375-5.187 11.561-11.561 11.561v.001Zm0-22.467c-6.014 0-10.907 4.893-10.907 10.906 0 6.014 4.893 10.907 10.907 10.907 6.013 0 10.906-4.893 10.906-10.907 0-6.013-4.893-10.906-10.906-10.906Z" fill="#FCAB28"/><path d="m11.732 9.717.99-2.5.926 2.535 1.734.99-1.768.926-.99 3.18-.927-3.215-1.734-.99 1.769-.926Z" fill="#fff"/></g></g><defs><clipPath id="a"><path fill="#fff" d="M0 0h39.001v54H0z"/></clipPath><clipPath id="b"><path fill="#fff" d="M0-.248h39.001v54.495H0z"/></clipPath></defs></svg>
