<svg width="81" height="72" viewBox="0 0 81 72" fill="none" xmlns="http://www.w3.org/2000/svg">
<g clip-path="url(#clip0_163_11102)">
<path d="M63.1036 31.4352C63.1036 31.8353 63.1036 32.234 63.0883 32.6327C62.8373 42.3543 60.8729 52.3635 55.3509 60.5377C53.4856 63.3043 51.2142 65.7742 48.6132 67.8643C46.4418 69.5974 42.338 73.0073 39.3572 71.7079C34.1106 69.4254 29.6188 65.5544 26.291 60.9044C20.5667 52.89 18.4486 42.8656 18.2264 33.1637C18.1869 31.3849 18.2264 29.6092 18.2949 27.838C18.3116 27.4363 18.1808 26.5873 18.4075 26.2464C18.6099 25.9421 19.3813 25.7473 19.707 25.5921L25.9273 22.6098C30.2259 20.5495 34.4849 18.2184 38.89 16.4C39.4743 16.1581 40.0038 15.8081 40.6003 15.5936C40.6891 15.5567 40.785 15.5404 40.8809 15.546C40.9769 15.5515 41.0703 15.5787 41.1542 15.6255C48.0547 19.0553 55.0009 22.4059 61.9213 25.7899C62.238 25.9181 62.5241 26.1115 62.7612 26.3575C63.3166 27.0285 63.1294 28.1332 63.1127 28.9321C63.0944 29.7614 63.1036 30.6013 63.1036 31.4352ZM60.8135 32.6631C60.8637 31.2267 60.8135 29.7918 60.7587 28.3569C60.7669 28.2372 60.7366 28.118 60.6723 28.0168C60.608 27.9155 60.513 27.8374 60.4012 27.7939C59.4882 27.3679 58.5889 26.9159 57.6835 26.4732L50.9762 23.1895C47.72 21.5959 44.4652 20.0007 41.212 18.404C41.0934 18.3371 40.9595 18.3019 40.8232 18.3019C40.687 18.3019 40.5531 18.3371 40.4345 18.404C38.8733 19.1648 37.303 19.9074 35.7372 20.6575L27.1249 24.7887L23.9903 26.286C22.9039 26.8064 21.8205 27.3298 20.731 27.8457C20.6601 27.8694 20.5994 27.9165 20.5588 27.9793C20.5182 28.042 20.5 28.1167 20.5073 28.1911C20.5165 28.4954 20.4693 28.8134 20.4571 29.1253C20.416 30.0961 20.4008 31.07 20.3841 32.0423C20.3734 32.6783 20.3993 33.3144 20.4145 33.9519C20.4389 35.0627 20.4754 36.1704 20.556 37.2797C20.6291 38.2946 20.728 39.305 20.8436 40.3153C20.9897 41.5803 21.186 42.8361 21.4325 44.0829C21.8853 46.4232 22.5244 48.7236 23.3436 50.9621C24.2493 53.4327 25.4229 55.7967 26.8434 58.0118C27.7447 59.4147 28.7595 60.7414 29.8775 61.9786C30.8369 63.0476 31.8728 64.0454 32.977 64.964C34.305 66.0666 35.7364 67.0384 37.2512 67.8658C38.3078 68.4446 39.4113 68.9333 40.5501 69.3265C40.7229 69.3949 40.9143 69.3997 41.0903 69.3402C41.7573 69.1076 42.4119 68.841 43.0516 68.5414C45.3102 67.4575 47.3986 66.0499 49.2507 64.363C50.5671 63.1756 51.7731 61.8713 52.8539 60.4661C54.2948 58.5834 55.5332 56.554 56.5484 54.4116C57.5027 52.3907 58.2871 50.2937 58.8932 48.1425C59.375 46.4407 59.7626 44.7136 60.0542 42.969C60.1973 42.1139 60.318 41.2562 60.4164 40.396C60.4985 39.6839 60.5838 38.9733 60.634 38.2657C60.6933 37.4121 60.7861 36.56 60.8074 35.7048C60.8379 34.6823 60.8135 33.675 60.8135 32.6661V32.6631Z" fill="#C1A575"/>
<path d="M48.0212 0.675725C48.0517 0.954181 48.0897 1.23568 48.1156 1.5187C48.2058 2.5452 48.2308 3.57641 48.1901 4.60607C48.1759 5.14915 48.0853 5.68751 47.9208 6.20529C47.8823 6.3514 47.8116 6.48705 47.7139 6.60236C47.6162 6.71766 47.4941 6.8097 47.3563 6.87176C47.3066 6.88743 47.2641 6.92017 47.2363 6.96416C47.2084 7.00816 47.197 7.06059 47.2041 7.11217C47.2041 7.72082 47.2041 8.3173 47.2041 8.91986C47.2041 9.07202 47.2711 9.12223 47.4141 9.12071C47.831 9.12071 48.248 9.12071 48.6649 9.12071C48.817 9.12071 48.8673 9.0492 48.8642 8.90769C48.8642 8.6764 48.8566 8.4512 48.8642 8.21231C48.8839 7.59946 48.9505 6.98902 49.0635 6.38636C49.0987 6.09383 49.1676 5.80636 49.269 5.52969C49.6471 4.66809 50.0723 3.82791 50.5426 3.01293C50.8086 2.5644 51.1481 2.16372 51.5468 1.82759C51.8344 1.57957 52.3761 1.68456 52.5876 1.97975C52.6911 2.12278 52.618 2.21408 52.5222 2.30994C52.1743 2.6656 51.868 3.0597 51.6092 3.48463C51.2183 4.12582 50.9028 4.81001 50.6688 5.5236C50.3257 6.54146 50.0905 7.5926 49.9674 8.65966C49.8825 9.37118 49.8393 10.0871 49.838 10.8036C49.838 11.8911 49.838 12.98 49.838 14.0705C49.838 14.1512 49.838 14.2318 49.838 14.3125C49.838 14.4251 49.7894 14.4859 49.6737 14.4859H49.4303H31.8145C31.7445 14.4859 31.6745 14.4859 31.606 14.4859C31.4736 14.4859 31.4173 14.4236 31.4204 14.2957C31.4204 14.2151 31.4204 14.1329 31.4204 14.0523C31.4204 12.8715 31.4204 11.6892 31.4204 10.5084C31.3997 9.16676 31.2235 7.83201 30.8954 6.53092C30.8717 6.45428 30.8411 6.37992 30.8041 6.30876C30.8041 6.29963 30.7813 6.29354 30.7798 6.28441C30.6989 5.8893 30.5754 5.50411 30.4115 5.13559C30.3765 5.04582 30.3598 4.93778 30.3202 4.84344C29.9598 3.93835 29.445 3.10274 28.7986 2.37385C28.718 2.2856 28.5506 2.20039 28.6373 2.06953C28.7423 1.90367 28.861 1.71195 29.0938 1.68456C29.3264 1.67227 29.5556 1.7447 29.739 1.88846C30.1833 2.17452 30.4557 2.6097 30.7204 3.04184C31.3176 4.01897 31.7866 5.06889 32.1157 6.16573C32.2435 6.61167 32.316 7.07158 32.3318 7.53519C32.3757 7.99591 32.396 8.45858 32.3927 8.92138C32.3927 9.07354 32.4475 9.12984 32.5966 9.12832C33.0135 9.12832 33.4304 9.12832 33.8473 9.12832C33.9995 9.12832 34.0528 9.06898 34.0528 8.92138C34.0528 8.31882 34.0528 7.71676 34.0528 7.11522C34.0605 7.06449 34.0493 7.01269 34.0212 6.96973C33.9931 6.92677 33.9502 6.89568 33.9006 6.88241C33.6054 6.78959 33.4639 6.5507 33.3604 6.28898C33.204 5.84096 33.1103 5.37345 33.082 4.89974C33.0262 4.38184 33.01 3.86045 33.0333 3.34008C33.0774 2.45145 33.1094 1.56283 33.2387 0.687898C33.3543 0.631598 33.3985 0.719851 33.4487 0.773108C34.418 1.79716 35.3933 2.81816 36.2043 3.97764C36.4942 4.36421 36.7122 4.79972 36.848 5.26341C36.9925 5.81728 37.0306 6.35441 36.7293 6.87024C36.6702 6.97063 36.6402 7.08548 36.6426 7.20195C36.6426 7.75734 36.6426 8.31425 36.6426 8.87573C36.6426 9.11919 36.6517 9.12528 36.9028 9.1268C37.621 9.1268 38.3392 9.1268 39.0574 9.1268C39.3054 9.1268 39.313 9.1268 39.3145 8.87421C39.3145 8.34012 39.3145 7.80908 39.3145 7.27499C39.3208 7.21938 39.3095 7.16321 39.2822 7.11436C39.2549 7.06551 39.213 7.02643 39.1624 7.00262C38.9717 6.87352 38.7957 6.72402 38.6374 6.55678C38.1642 6.1003 38.0972 5.50078 38.1809 4.89365C38.3209 3.90917 38.715 3.00532 39.1867 2.13952C39.5398 1.50994 39.9273 0.90036 40.3477 0.313579C40.3751 0.275539 40.3979 0.235977 40.4253 0.199458C40.6231 -0.0607393 40.6307 -0.0668258 40.8133 0.185763C41.6299 1.27502 42.2925 2.47162 42.7823 3.74179C42.9685 4.2172 43.0714 4.72111 43.0866 5.23145C43.0998 5.58007 43.0147 5.92537 42.8412 6.22802C42.6677 6.53067 42.4127 6.7785 42.1052 6.94328C42.0533 6.96417 42.0092 7.0008 41.9792 7.04801C41.9492 7.09522 41.9347 7.15065 41.9378 7.20652C41.9378 7.76191 41.9454 8.3173 41.9378 8.8803C41.9378 9.0568 41.9956 9.1268 42.1782 9.12376C42.8964 9.11767 43.6146 9.11767 44.3328 9.12376C44.5017 9.12376 44.5915 9.07963 44.5839 8.88943C44.5626 8.33556 44.6082 7.78169 44.5595 7.2263C44.5591 7.11413 44.5309 7.00382 44.4774 6.90523C44.1731 6.41679 44.2126 5.85532 44.3328 5.36536C44.4877 4.83398 44.7463 4.33854 45.0936 3.90764C45.5714 3.27009 46.0705 2.64927 46.6061 2.05736C46.9941 1.62826 47.3837 1.20068 47.8021 0.800497C47.8599 0.745719 47.8995 0.660508 48.0212 0.675725Z" fill="#C1A575"/>
<path d="M61.588 9.90721C61.9638 10.2435 61.9623 10.6193 61.588 10.9343C61.1086 11.336 60.6877 11.8025 60.3372 12.3205C59.4242 13.7097 59.1975 15.1933 59.7788 16.7743C59.794 16.8169 59.8046 16.8656 59.8914 16.8625C59.9431 16.5308 60.0025 16.1961 60.0435 15.8583C60.0983 15.3091 60.2972 14.7841 60.6202 14.3366C60.7839 14.1147 60.9909 13.9283 61.2289 13.7889C61.4708 13.6474 61.5636 13.696 61.5667 13.976C61.5806 14.5429 61.7134 15.1005 61.9567 15.6127C62.2 16.1249 62.5482 16.5803 62.9787 16.9493C63.1507 17.1014 63.172 17.1014 63.2496 16.8701C63.2747 16.7995 63.3178 16.7367 63.3747 16.6879C63.4315 16.639 63.5001 16.6059 63.5737 16.5917C63.7666 16.5491 63.9655 16.5414 64.161 16.5689C64.1845 16.5673 64.208 16.5716 64.2294 16.5815C64.2508 16.5915 64.2693 16.6066 64.2832 16.6256C64.2972 16.6445 64.3061 16.6667 64.3092 16.69C64.3124 16.7134 64.3095 16.7371 64.301 16.7591C64.0637 17.882 64.5567 18.7889 65.1775 19.6501C66.1528 20.9937 67.4067 22.0513 68.7289 23.0327C68.7655 23.0601 68.8126 23.0738 68.8233 23.1529C68.4838 23.1362 68.1466 23.0883 67.816 23.0099C67.151 22.8881 66.483 22.7619 65.8287 22.593C65.0295 22.3879 64.2511 22.1087 63.5037 21.7591C63.3591 21.6906 63.1994 21.645 63.0655 21.5659C62.5481 21.2722 62.0095 21.0105 61.5226 20.6742C60.9098 20.2675 60.355 19.7797 59.8731 19.2241C59.5347 18.8483 59.1095 18.561 58.6345 18.3872C58.1349 18.1648 57.6198 17.9791 57.0931 17.8318C56.2075 17.6005 55.3143 17.5092 54.4729 18.0205C54.4237 18.047 54.3729 18.0703 54.3207 18.0905C54.2538 17.8227 54.4075 17.6462 54.5368 17.4742C54.6661 17.3023 54.8198 17.1486 54.9583 16.9919C54.9202 16.9386 54.8868 16.9371 54.8563 16.9508C54.3588 17.1653 53.8384 17.1425 53.3165 17.103C53.2477 17.0968 53.1812 17.0755 53.1217 17.0406C52.9695 16.9523 52.9467 16.8519 53.073 16.718C53.3225 16.4643 53.602 16.242 53.9053 16.0561C54.1128 15.9154 54.3366 15.8005 54.5718 15.7137C55.7115 15.3272 56.7538 15.5539 57.7292 16.2082C57.7931 16.2508 57.8402 16.33 57.9452 16.3056C57.9571 16.2376 57.9555 16.1679 57.9403 16.1005C57.9252 16.0331 57.8969 15.9694 57.857 15.913C57.724 15.6625 57.6457 15.3866 57.6272 15.1035C57.5709 14.5512 57.475 14.0049 57.44 13.4495C57.4072 12.9996 57.4297 12.5474 57.507 12.1029C57.5816 11.6799 57.5907 11.2341 57.8113 10.8384C58.0352 10.4527 58.3044 10.0951 58.6132 9.77331C59.2401 9.0901 60.0542 8.86034 60.923 8.77361C61.6288 8.68608 62.3451 8.7573 63.0198 8.98207C63.3196 9.0793 63.5759 9.2785 63.7441 9.54507C63.8065 9.64397 63.8552 9.74744 63.7639 9.86309C63.7255 9.90696 63.6746 9.93804 63.618 9.95219C63.5615 9.96633 63.5019 9.96285 63.4474 9.94221C63.2828 9.89809 63.1216 9.84215 62.9651 9.77483C62.4857 9.59072 62.049 9.65919 61.588 9.90721ZM67.6882 22.5853C67.6801 22.5489 67.6629 22.515 67.6382 22.4871C67.6134 22.4591 67.5819 22.4379 67.5466 22.4256C66.868 22.0497 66.1863 21.6815 65.5092 21.3011C65.2381 21.1729 64.9793 21.0201 64.7362 20.8446C64.1917 20.3944 63.6787 19.9074 63.2009 19.3869C62.5483 18.711 62.0318 17.916 61.6793 17.0451C61.6532 16.9531 61.6002 16.871 61.5271 16.8093C61.5393 16.928 61.5408 17.0086 61.5545 17.0877C61.699 17.853 62.0304 18.5706 62.5192 19.1769C62.636 19.2862 62.7067 19.4358 62.717 19.5954C62.0286 19.1639 61.4149 18.6233 60.9002 17.9946C60.9135 18.1821 60.9818 18.3616 61.0965 18.5104C61.5542 19.1953 62.1376 19.787 62.8159 20.2542C63.803 20.9659 64.8717 21.5569 65.9992 22.0147C66.5432 22.2571 67.1086 22.4481 67.6882 22.5853ZM58.6284 15.8263C58.6452 15.7965 58.6554 15.7634 58.6583 15.7292C58.6612 15.6951 58.6567 15.6607 58.6452 15.6285C58.4769 14.8822 58.4847 14.107 58.668 13.3643C58.9035 12.4434 59.3228 11.5796 59.9005 10.8247C60.1157 10.5747 60.313 10.3098 60.4909 10.032C58.9282 10.91 57.4659 13.7067 58.6284 15.8263Z" fill="#C1A575"/>
<path d="M18.5246 14.4812C18.9901 14.6432 19.3775 14.9746 19.6095 15.4094C19.9213 15.9656 20.1136 16.5808 20.1741 17.2155C20.1692 17.3315 20.1971 17.4465 20.2547 17.5472C20.3582 17.5244 20.3551 17.4301 20.3734 17.3601C20.5834 16.5734 20.6975 15.7776 20.5012 14.9757C20.419 14.6349 20.244 14.3184 20.1375 13.9836C20.0234 13.6983 19.8697 13.4304 19.681 13.1878C19.3381 12.638 18.8978 12.1553 18.3816 11.7636C18.3032 11.7074 18.2396 11.633 18.1961 11.5469C18.1526 11.4608 18.1307 11.3655 18.132 11.269C18.1123 11.0393 18.1975 10.8962 18.4729 10.8034C18.0164 10.6513 17.6436 10.4991 17.2282 10.6239C17.0075 10.6839 16.7922 10.7623 16.5845 10.8582C16.4233 10.9373 16.303 10.951 16.1965 10.7943C16.09 10.6376 16.2057 10.5341 16.2817 10.4337C16.5549 10.0704 16.9609 9.83022 17.4108 9.76568C18.0595 9.6372 18.7254 9.62022 19.3798 9.71547C20.7873 9.95132 21.7611 10.7121 22.2374 12.0709C22.5005 12.8879 22.5922 13.7504 22.5067 14.6044C22.4683 15.3326 22.338 16.053 22.1187 16.7484C22.0959 16.8035 22.0959 16.8653 22.1187 16.9203C22.1978 16.9736 22.2495 16.9051 22.2921 16.8625C22.7928 16.3619 23.4349 16.2006 24.1059 16.1321C24.99 16.0408 25.763 16.3543 26.4644 16.864C26.6218 16.9613 26.7655 17.079 26.892 17.214C27.0092 17.357 27.0076 17.3829 26.8524 17.4712C26.7331 17.5429 26.5987 17.5862 26.4599 17.5975C26.0323 17.6264 25.6032 17.6553 25.1924 17.4864C25.1676 17.4757 25.1405 17.4717 25.1138 17.475C25.0871 17.4782 25.0617 17.4884 25.0402 17.5046C25.3393 17.7877 25.568 18.1369 25.7082 18.5241C25.6199 18.6215 25.556 18.5515 25.486 18.515C24.6081 18.0326 23.7286 18.1559 22.8278 18.4663C22.3713 18.6185 21.9224 18.7874 21.475 18.9623C21.073 19.1055 20.7178 19.356 20.4479 19.6866C19.9427 20.2896 19.3582 20.8215 18.7103 21.2676C17.7226 21.9624 16.6484 22.5251 15.5149 22.9414C14.9062 23.1757 14.2808 23.3644 13.6554 23.5379C13.03 23.7113 12.3727 23.7965 11.7275 23.9213C11.6971 23.7874 11.8036 23.7691 11.8554 23.7311C12.1977 23.4374 12.5553 23.1635 12.887 22.8592C13.1579 22.6097 13.3998 22.3282 13.657 22.0619C14.0313 21.6739 14.4741 21.3422 14.7738 20.8918C15.2075 20.2451 15.632 19.5908 15.8603 18.83C16 18.4279 16.02 17.994 15.9181 17.5807C15.8907 17.4818 15.9044 17.4042 16.0307 17.3738C16.2016 17.3256 16.3833 17.3326 16.55 17.3938C16.7167 17.455 16.8598 17.5673 16.9589 17.7146C17.038 17.8303 17.0973 17.8029 17.181 17.7374C17.499 17.4879 17.6832 17.1379 17.8871 16.8062C18.1459 16.347 18.339 15.8538 18.4607 15.3409C18.5383 15.0853 18.5064 14.7962 18.5246 14.4812ZM17.5477 20.2633L17.5006 20.2177C17.709 19.8708 17.9692 19.5588 18.1594 19.1997C18.432 18.6986 18.5944 18.1451 18.6357 17.5762C18.5246 17.6279 18.5246 17.7177 18.4957 17.7892C18.3338 18.2142 18.1299 18.6219 17.8871 19.0065C17.4003 19.7545 16.8227 20.4394 16.1676 21.0454C15.9248 21.3094 15.6521 21.5443 15.3551 21.7454L12.9205 23.162C12.8475 23.2046 12.7683 23.2366 12.744 23.334C12.7759 23.3431 12.7881 23.3522 12.7972 23.3492C13.9007 23.0007 14.961 22.528 15.9576 21.9402C16.8852 21.4273 17.7326 20.7814 18.4729 20.0229C18.793 19.6876 19.0585 19.304 19.2596 18.8863C19.2885 18.8239 19.3432 18.7585 19.2839 18.658C18.9958 19.0454 18.6639 19.3982 18.2948 19.7095C18.0786 19.9351 17.8261 20.1228 17.5477 20.2649V20.2633ZM21.4431 16.4273C21.9635 15.4809 21.8996 14.1251 21.3487 12.9809C20.8923 12.0496 19.9367 10.9891 19.4604 10.9099C20.8983 12.4863 21.825 14.224 21.4431 16.4289V16.4273Z" fill="#C1A575"/>
<path d="M65.3206 39.1955C65.4834 38.8319 65.6249 38.5139 65.7679 38.2035C66.3855 36.8684 67.1649 35.6143 68.0884 34.4694C68.5396 33.9406 69.0382 33.4542 69.5781 33.0162C70.2389 32.4458 71.0186 32.03 71.8605 31.799C72.8252 31.5398 73.8387 31.5209 74.8124 31.7442C75.9608 32.0155 77.0358 32.5349 77.9622 33.2658C78.0162 33.307 78.0671 33.3523 78.1143 33.4012C78.1285 33.4117 78.14 33.4253 78.1479 33.4411C78.1559 33.4568 78.16 33.4741 78.16 33.4918C78.16 33.5094 78.1559 33.5267 78.1479 33.5425C78.14 33.5582 78.1285 33.5718 78.1143 33.5823C78.0082 33.6876 77.8897 33.7796 77.7613 33.8562C77.0005 34.2579 76.1956 34.2777 75.3739 34.2031C75.0437 34.1742 74.7166 34.0996 74.3864 34.051C74.3483 34.1757 74.4594 34.1879 74.5142 34.2229C75.1517 34.6261 75.5443 35.2378 75.9171 35.8662C75.9582 35.9347 76.0115 36.0184 75.9506 36.0899C75.8897 36.1614 75.768 36.131 75.698 36.0899C75.4332 35.9195 75.1274 35.8525 74.852 35.7217C74.6746 35.6418 74.4845 35.5939 74.2905 35.5802C73.7364 35.5229 73.1766 35.5569 72.6335 35.6806C71.1847 36.0286 69.7888 36.5679 68.4825 37.2844C67.4953 37.8125 66.541 38.3999 65.6249 39.0434C65.539 39.1206 65.4339 39.1732 65.3206 39.1955Z" fill="#C1A575"/>
<path d="M15.4767 39.4799C15.1495 39.4023 14.9258 39.1756 14.6672 39.0143C13.8333 38.4842 12.9696 38.0026 12.0804 37.5718C11.0825 37.0912 10.043 36.7021 8.97479 36.4093C8.35395 36.2404 7.7131 36.1565 7.06972 36.1597C6.4455 36.1809 5.83847 36.3696 5.31225 36.706C5.25291 36.741 5.19661 36.779 5.13574 36.8125C5.10641 36.8253 5.07581 36.835 5.04444 36.8414C5.02436 36.8281 5.00946 36.8083 5.00226 36.7853C4.99505 36.7623 4.99598 36.7375 5.00488 36.7151C5.13924 36.3218 5.35141 35.9596 5.62875 35.65C5.93307 35.3335 6.20696 35.0003 6.63149 34.7492C6.48031 34.7046 6.31807 34.7165 6.17501 34.7827C5.38423 34.9628 4.56484 34.9784 3.7678 34.8283C3.47511 34.7644 3.19957 34.6383 2.95982 34.4586C2.80766 34.3505 2.80766 34.2745 2.95982 34.1253C3.45927 33.6406 4.0383 33.2453 4.67165 32.9567C5.51244 32.5465 6.42874 32.3139 7.36339 32.2735C8.13944 32.2384 8.91379 32.3734 9.63213 32.6692C10.8281 33.153 11.8004 33.9382 12.6541 34.8846C13.4768 35.8219 14.1866 36.8525 14.7691 37.9553C14.9913 38.361 15.2038 38.7703 15.4067 39.1832C15.4391 39.2247 15.4622 39.2726 15.4743 39.3239C15.4863 39.3751 15.4872 39.4283 15.4767 39.4799Z" fill="#C1A575"/>
<path d="M63.2177 45.8647C63.1882 45.729 63.1318 45.6007 63.0518 45.4873C62.8342 45.0415 62.7019 44.5743 62.8434 44.0813C62.8578 44.0433 62.8757 44.0066 62.8966 43.9718C63.6693 44.3835 64.2987 45.0202 64.7013 45.7977C65.0741 45.3123 65.3099 44.7691 65.8014 44.4161C66.2761 44.0705 66.8356 43.8602 67.4204 43.8074C68.0142 43.7379 68.6159 43.7933 69.187 43.9702C68.8233 44.6702 68.1964 44.9 67.4493 45.0643C67.9058 45.2575 68.3121 45.3595 68.5829 45.6821C68.5829 45.7277 68.5647 45.7429 68.5373 45.7414C67.6836 45.7018 67.002 46.0929 66.407 46.6376C65.5693 47.3878 64.8618 48.2717 64.3133 49.2533C63.9272 49.9098 63.4706 50.5221 62.9514 51.0792C62.9058 51.131 62.8662 51.1873 62.8251 51.2421C62.8251 51.2421 62.8251 51.2634 62.8358 51.3044C63.1519 51.3024 63.4677 51.3238 63.7807 51.3684C64.382 51.4859 64.9547 51.7195 65.4666 52.0561C65.6538 52.1748 65.6371 52.2296 65.4469 52.3711C65.2222 52.5345 64.9557 52.6305 64.6784 52.648C64.3237 52.6671 63.9681 52.6671 63.6133 52.648C63.9465 52.9889 64.3437 53.2293 64.4593 53.6903C64.401 53.7006 64.3413 53.6992 64.2835 53.6861C64.2258 53.6731 64.1712 53.6486 64.1231 53.6143C63.927 53.5174 63.7125 53.4635 63.4939 53.4561C63.2753 53.4488 63.0577 53.4882 62.8555 53.5717C62.7308 53.6143 62.609 53.5991 62.4873 53.6371C61.9087 53.829 61.3518 54.0809 60.8257 54.3888C60.2128 54.7394 59.6241 55.1308 59.0637 55.5604C59.0104 55.6015 58.9495 55.6532 58.8811 55.5954C58.8126 55.5376 58.8735 55.4935 58.8811 55.4433C58.9587 55.1557 59.0787 54.8814 59.2371 54.6292C59.4189 54.3616 59.5618 54.0696 59.6617 53.7619C59.6756 53.7065 59.701 53.6546 59.7362 53.6097C60.0405 53.2673 60.2216 52.8367 60.5914 52.5446C60.8242 52.362 60.9855 52.0957 61.2335 51.9253C61.5588 51.6882 61.9274 51.5171 62.3184 51.4216C62.3925 51.416 62.4623 51.3851 62.5163 51.3342C62.5704 51.2832 62.6052 51.2152 62.6151 51.1416C62.8342 50.0628 63.0214 48.9809 62.9681 47.8732C62.9438 47.365 62.7673 46.8963 62.5953 46.4261C62.489 46.1169 62.3007 45.8424 62.0506 45.6318C62.5071 45.5695 62.8388 45.7581 63.1781 45.9073C63.1949 45.9194 63.2207 45.9453 63.2268 45.9407C63.2725 45.9103 63.2405 45.8905 63.2177 45.8647Z" fill="#C1A575"/>
<path d="M66.2914 34.2424C66.7096 33.912 67.1103 33.56 67.4919 33.1879C68.2519 32.4878 68.8887 31.6648 69.3757 30.7534C69.5816 30.3629 69.7161 29.9388 69.7728 29.5011C69.8196 29.1042 69.7695 28.7018 69.627 28.3285C69.4844 27.9551 69.2536 27.6218 68.9542 27.3571C68.6999 27.1203 68.4173 26.9159 68.1128 26.7484C66.8239 26.0363 65.6066 26.438 64.8458 27.631C64.7623 27.7694 64.6861 27.9121 64.6176 28.0586C64.5537 28.1849 64.473 28.1955 64.368 28.1118C64.1285 27.9263 63.9599 27.6642 63.8903 27.3693C63.8145 26.9818 63.8244 26.5824 63.9192 26.1991C63.9633 25.9602 63.9633 25.9557 63.7305 25.8948C63.379 25.7929 63.0275 25.7427 62.6654 25.9481C62.629 25.7708 62.6334 25.5877 62.6782 25.4124C62.7231 25.2371 62.8071 25.0743 62.924 24.9362C63.0596 24.7637 63.2126 24.6056 63.3805 24.4645C63.4825 24.3884 63.4703 24.3123 63.3805 24.2393C63.1856 24.0249 62.949 23.8524 62.6851 23.7326C62.5928 23.7106 62.5073 23.6662 62.4361 23.6033C62.365 23.5404 62.3105 23.4609 62.2773 23.372C62.6324 23.1595 63.0278 23.0232 63.4383 22.9718C64.8046 22.7571 66.2038 22.936 67.4722 23.4876C68.1371 23.7646 68.6894 24.2408 69.1825 24.7658C69.9109 25.4977 70.4218 26.4174 70.6584 27.4225C70.8049 28.0912 70.8163 28.7823 70.6919 29.4554C70.506 30.5865 70.0549 31.6575 69.3757 32.5808C68.796 33.3416 68.0808 33.929 67.1465 34.2105C66.8698 34.2996 66.5739 34.3107 66.2914 34.2424ZM65.2688 24.3002C65.5304 24.2728 65.794 24.2728 66.0555 24.3002C66.6611 24.4095 67.2287 24.6713 67.705 25.061C68.3572 25.5618 68.9567 26.1278 69.4944 26.75C69.5476 26.8108 69.5963 26.893 69.7287 26.8808C69.6907 26.7987 69.6724 26.7454 69.6435 26.6967C69.2741 26.0527 68.7988 25.4755 68.2375 24.9895C67.852 24.6367 67.3998 24.3646 66.9076 24.1891C66.3507 24.005 65.8014 23.9943 65.2688 24.3002Z" fill="#C1A575"/>
<path d="M64.5415 44.7021C64.3551 44.4676 64.2485 44.1797 64.2371 43.8804C64.0591 42.4881 64.5126 41.2784 65.3373 40.192C66.0692 39.2273 66.9593 38.4436 68.0884 37.9704C68.8503 37.6639 69.6762 37.5504 70.4925 37.6402C71.2844 37.7272 72.056 37.9468 72.7749 38.2899C73.4546 38.6159 74.0518 39.0913 74.5218 39.6807C75.1709 40.4204 75.6586 41.2875 75.9536 42.2264C76.0549 42.6077 76.1136 42.9992 76.1286 43.3935C76.0835 43.4076 76.0356 43.4104 75.9892 43.4017C75.9427 43.3929 75.8992 43.3729 75.8623 43.3432C75.5428 43.112 75.1578 43.0115 74.8291 42.8046C74.7028 42.7255 74.677 42.8198 74.6572 42.9248C74.5822 43.3123 74.3855 43.6657 74.0957 43.9336C73.9823 44.0437 73.8536 44.1369 73.7138 44.2106C73.6331 44.0051 73.551 43.8119 73.484 43.6126C73.4517 43.5149 73.3999 43.4249 73.3319 43.3478C73.0701 43.0435 73.0717 43.0435 72.7597 43.2991C72.3032 43.6704 71.7874 43.9078 71.1727 43.7936C71.1153 43.789 71.0584 43.7803 71.0023 43.7678C70.771 43.6902 70.7466 43.5867 70.8973 43.3889C71.0947 43.1483 71.2449 42.8726 71.3401 42.5763C71.3948 42.3785 71.5348 42.2188 71.5637 42.0073C71.6542 41.5379 71.5587 41.0518 71.2975 40.6515C71.1255 40.3928 70.9931 40.1022 70.7147 39.9424C70.2881 39.6912 69.846 39.4676 69.3909 39.2729C69.1579 39.1801 68.9097 39.1316 68.659 39.1299C67.7688 39.104 67.0917 39.5285 66.5287 40.1631C66.0903 40.6843 65.7365 41.2712 65.4803 41.9023C65.112 42.7724 64.8356 43.6786 64.6556 44.6062C64.6404 44.6397 64.6328 44.6731 64.5415 44.7021ZM73.9451 41.2799C73.9681 41.1057 73.9624 40.9289 73.9283 40.7565C73.7762 40.0946 73.3577 39.632 72.8099 39.2744C71.8331 38.6354 70.7345 38.3995 69.5872 38.3371C69.5415 38.3371 69.4943 38.3371 69.4776 38.4269C69.648 38.4771 69.8215 38.5304 69.9965 38.5791C70.7458 38.7738 71.4753 39.0382 72.1754 39.3688C72.8176 39.6868 73.3806 40.0961 73.729 40.7519C73.8127 40.9041 73.8233 41.0836 73.9496 41.2799H73.9451Z" fill="#C1A575"/>
<path d="M5.15107 43.8835C5.14192 43.8512 5.13581 43.8181 5.13281 43.7846C5.13533 42.8638 5.3889 41.961 5.86623 41.1735C6.14608 40.7272 6.46428 40.3062 6.81725 39.9152C7.49649 39.1395 8.39367 38.5864 9.39183 38.3281C10.9134 37.9112 12.3833 37.9857 13.7497 38.8668C15.0081 39.6778 15.985 40.7262 16.5039 42.1535C16.767 42.8501 16.8303 43.6064 16.6865 44.337C16.6279 44.5496 16.5349 44.7511 16.4111 44.9335C16.2224 44.1955 15.9637 43.5412 15.7278 42.8793C15.4852 42.2083 15.1569 41.5716 14.751 40.9849C14.6469 40.7924 14.5251 40.6101 14.3873 40.4401C13.989 40.0587 13.507 39.7757 12.9798 39.6139C12.7201 39.5277 12.4467 39.49 12.1733 39.5028C11.981 39.5245 11.7931 39.5758 11.6164 39.655C11.0532 39.8277 10.539 40.1318 10.1161 40.5421C9.53942 41.1385 9.40248 41.8446 9.60181 42.6267C9.69681 43.0331 9.88955 43.4102 10.1633 43.7253C10.3428 43.9307 10.3154 44.0296 10.0309 44.0996C9.76325 44.1742 9.48191 44.1855 9.20912 44.1327C8.93634 44.0799 8.67956 43.9644 8.45907 43.7953C8.05128 43.4986 8.0178 43.5092 7.74239 43.9262C7.63881 44.0795 7.57742 44.2574 7.56436 44.442C7.54762 44.6352 7.41981 44.7067 7.31329 44.5728C7.13831 44.3583 6.90246 44.2046 6.74269 43.9764C6.62355 43.8356 6.55357 43.6599 6.54335 43.4758C6.54335 43.2247 6.50075 43.2156 6.27859 43.3236C5.94536 43.4758 5.59386 43.596 5.31693 43.8516C5.29437 43.8707 5.26725 43.8837 5.23819 43.8893C5.20914 43.8949 5.17913 43.8929 5.15107 43.8835ZM7.17635 41.6605C7.20982 41.6285 7.23417 41.6163 7.24026 41.5981C7.48828 40.7764 8.07715 40.2651 8.80296 39.8756C9.50252 39.5155 10.2346 39.2225 10.9895 39.0007C11.1469 38.9686 11.298 38.911 11.4369 38.8302C11.3945 38.8178 11.3513 38.8087 11.3075 38.8029C11.2263 38.8008 11.145 38.8034 11.0641 38.8105C10.2697 38.8875 9.4962 39.1093 8.78166 39.4648C8.28673 39.6966 7.85854 40.0499 7.53697 40.4919C7.28734 40.829 7.16014 41.2412 7.17635 41.6605Z" fill="#C1A575"/>
<path d="M14.3585 34.702C13.7559 34.76 13.1512 34.6148 12.6406 34.2897C12.2754 34.0767 12.006 33.7602 11.7109 33.4726C11.0555 32.8581 10.5706 32.0843 10.3034 31.2267C10.0142 30.2635 9.856 29.2836 9.99903 28.2595C10.1031 27.4976 10.3874 26.7714 10.8283 26.1414C10.9805 25.9407 11.1478 25.752 11.3289 25.5769C11.6767 25.164 12.0691 24.791 12.4991 24.4646C12.717 24.3155 12.9513 24.192 13.1975 24.0964C14.096 23.7309 15.0548 23.5364 16.0246 23.5227C16.7413 23.5227 17.4534 23.6079 18.1245 23.9792C17.948 24.1587 17.7106 24.2531 17.5158 24.4052C17.3211 24.5574 17.1598 24.74 16.9787 24.8922C17.016 24.9925 17.0849 25.0779 17.175 25.1356C17.4962 25.4237 17.7107 25.8119 17.7836 26.2373C17.8034 26.3179 17.8202 26.4047 17.738 26.4579C17.6558 26.5112 17.6208 26.4214 17.5615 26.4016C17.2267 26.2844 16.9026 26.3697 16.5861 26.4929C16.4766 26.5355 16.5253 26.6253 16.542 26.7014C16.6242 27.0273 16.6545 27.3642 16.6318 27.6996C16.6257 27.8736 16.5838 28.0445 16.5086 28.2016C16.4335 28.3587 16.3267 28.4986 16.1951 28.6125C16.0764 28.7129 15.9973 28.7008 15.9151 28.5821C15.8192 28.4391 15.7188 28.2991 15.626 28.156C15.2914 27.6539 14.8004 27.2762 14.2291 27.0818C13.9178 26.976 13.5803 26.976 13.269 27.0818C12.6219 27.2883 12.0374 27.6547 11.5693 28.1469C11.2914 28.4277 11.0896 28.7747 10.9831 29.1552C10.8766 29.5357 10.8689 29.937 10.9607 30.3213C11.1326 31.181 11.5967 31.8977 12.1552 32.5566C12.7717 33.2782 13.4628 33.9325 14.217 34.5088C14.2763 34.5484 14.3524 34.5742 14.3585 34.702ZM15.1604 24.9515C15.1315 24.8617 15.0584 24.8511 14.996 24.8313C14.3052 24.6152 13.6722 24.7811 13.0757 25.1356C12.1628 25.6849 11.51 26.4899 10.9926 27.4089C10.9577 27.4713 10.8831 27.5367 10.9531 27.625C11.0383 27.5991 11.0809 27.5246 11.1311 27.4652C11.5836 26.9259 12.0765 26.4218 12.6056 25.9573C13.1031 25.5206 13.6403 25.1448 14.3067 24.9972C14.5895 24.9583 14.875 24.943 15.1604 24.9515Z" fill="#C1A575"/>
<path d="M22.2875 55.4599C21.831 55.1556 21.4111 54.8513 20.9698 54.5835C20.2484 54.1195 19.4645 53.7608 18.6417 53.5183C18.2485 53.395 17.8343 53.353 17.4244 53.3951C17.2023 53.424 17.0288 53.5822 16.7579 53.602C16.8492 53.1136 17.3255 52.9553 17.5614 52.5749C16.8477 52.6221 16.1402 52.7423 15.5315 52.2006C16.3517 51.5007 17.2981 51.2694 18.3222 51.2526C18.3754 51.1537 18.2872 51.1111 18.2354 51.0563C17.89 50.6881 17.5233 50.3366 17.2007 49.9501C16.9931 49.6739 16.8025 49.3853 16.6301 49.0858C16.2122 48.3981 15.717 47.7605 15.1542 47.1853C14.6648 46.7325 14.0978 46.3717 13.4804 46.1202C13.2314 46.0039 12.9573 45.9516 12.683 45.968C12.6283 45.968 12.5598 45.9833 12.5431 45.9072C12.5396 45.8781 12.5455 45.8486 12.5601 45.8231C12.5746 45.7977 12.5969 45.7775 12.6237 45.7657C12.7854 45.6377 12.9675 45.5379 13.1624 45.4705C13.3186 45.4471 13.4686 45.3928 13.6036 45.3107C13.4586 45.2466 13.3047 45.205 13.1471 45.1875C12.921 45.1478 12.7052 45.0627 12.5127 44.9375C12.3202 44.8122 12.1551 44.6493 12.0272 44.4586C11.9101 44.2943 11.9253 44.2577 12.12 44.203C12.9798 43.9641 13.8364 43.958 14.6642 44.3171C15.1662 44.5347 15.5973 44.8884 15.9089 45.3381C16.0458 45.5344 16.1736 45.7368 16.303 45.9285C16.4125 45.9133 16.4186 45.8296 16.4399 45.7763C16.6971 45.1144 17.2418 44.6975 17.747 44.2547C18.0011 44.0341 18.1046 44.1025 18.1457 44.4358C18.1852 44.8999 18.0788 45.3649 17.8413 45.7657C17.7633 45.8644 17.711 45.981 17.6892 46.105C17.878 45.9878 18.0759 45.886 18.2811 45.8007C18.4853 45.7022 18.7159 45.6724 18.9384 45.7155C18.7457 45.8797 18.5808 46.0739 18.45 46.2906C18.2004 46.8018 18.0762 47.3652 18.0878 47.934C18.062 49.0174 18.2628 50.0734 18.5291 51.1202C18.5438 51.1879 18.5788 51.2495 18.6293 51.2968C18.6799 51.3441 18.7436 51.3748 18.8121 51.385C19.7084 51.5859 20.3566 52.1534 20.9074 52.8366C21.4751 53.5659 21.9329 54.3743 22.2662 55.2362C22.2817 55.2795 22.2919 55.3244 22.2966 55.3701C22.2967 55.4003 22.2936 55.4304 22.2875 55.4599Z" fill="#C1A575"/>
<path d="M67.8889 16.7485C68.3849 17.3572 68.2952 18.045 68.1795 18.7845C68.5599 18.503 68.7501 18.0678 69.2446 18.0115C69.1716 18.2123 69.1016 18.3782 69.0514 18.5486C68.8886 19.1147 68.9829 19.6761 69.129 20.2224C69.4005 21.174 69.8107 22.0805 70.3463 22.9126C70.5152 23.1865 70.6887 23.4574 70.8636 23.7373C70.7541 23.8043 70.6689 23.7495 70.5791 23.7084C69.9005 23.4188 69.2634 23.0401 68.6847 22.5824C68.3241 22.2781 68.0197 21.9129 67.6789 21.5858C67.4048 21.3092 67.1836 20.9848 67.0261 20.6287C66.8281 20.1748 66.7556 19.6761 66.8161 19.1846C66.8724 18.4573 67.0398 17.7589 67.4872 17.1533C67.5983 17.0026 67.7458 16.9037 67.8889 16.7485Z" fill="#C1A575"/>
<path d="M9.63208 24.565C10.0118 23.9824 10.3528 23.3755 10.6531 22.7482C10.8844 22.2917 11.0228 21.7896 11.2146 21.3133C11.3476 20.9342 11.418 20.5359 11.423 20.1341C11.438 19.7658 11.3392 19.4019 11.14 19.0918C11.105 19.0324 11.0518 18.9837 11.0898 18.8772C11.3067 18.9302 11.5076 19.0345 11.6756 19.1815C11.8491 19.3033 11.9997 19.46 12.1945 19.5908C12.1001 19.1738 12.0689 18.7451 12.1017 18.3188C12.111 18.1358 12.1631 17.9576 12.2538 17.7984C12.3467 17.6264 12.4501 17.6158 12.5718 17.7679C13.2201 18.5759 13.637 19.4798 13.5442 20.5388C13.472 21.2699 13.1614 21.957 12.6601 22.4941C11.8738 23.3565 10.9229 24.0529 9.86337 24.5422C9.83117 24.568 9.79217 24.5839 9.75111 24.5879C9.71005 24.592 9.6687 24.584 9.63208 24.565Z" fill="#C1A575"/>
<path d="M60.8135 32.666C60.8135 33.6749 60.8379 34.6822 60.8135 35.6895C60.7876 36.5446 60.6994 37.3967 60.64 38.2504C60.5898 38.9655 60.5046 39.6761 60.4225 40.3806C60.321 41.2419 60.2003 42.0996 60.0603 42.9537C59.7687 44.6982 59.3811 46.4254 58.8993 48.1272C58.292 50.2838 57.5056 52.3858 56.5484 54.4115C55.532 56.5584 54.2916 58.5919 52.8478 60.4782C51.767 61.8834 50.561 63.1877 49.2446 64.3751C47.3925 66.0619 45.3041 67.4696 43.0456 68.5534C42.4058 68.853 41.7512 69.1197 41.0842 69.3523C40.9082 69.4118 40.7168 69.4069 40.544 69.3386C39.4053 68.9454 38.3017 68.4567 37.2451 67.8778C35.7303 67.0504 34.2989 66.0787 32.9709 64.9761C31.8667 64.0575 30.8308 63.0597 29.8714 61.9907C28.7534 60.7534 27.7386 59.4267 26.8373 58.0238C25.4168 55.8088 24.2432 53.4448 23.3375 50.9742C22.5183 48.7356 21.8793 46.4352 21.4264 44.0949C21.1799 42.8492 20.9836 41.5934 20.8375 40.3274C20.7219 39.317 20.623 38.3067 20.5499 37.2918C20.4693 36.1825 20.4328 35.0748 20.4084 33.964C20.3932 33.3264 20.3673 32.6904 20.378 32.0543C20.3947 31.082 20.4099 30.1082 20.451 29.1374C20.4632 28.8331 20.5104 28.5151 20.5012 28.2031C20.4939 28.1287 20.5121 28.0541 20.5527 27.9913C20.5933 27.9286 20.654 27.8815 20.7249 27.8577C21.8144 27.3419 22.8978 26.8184 23.9842 26.2981L27.1188 24.8008L35.7311 20.6696C37.2969 19.9194 38.8672 19.1754 40.4284 18.4161C40.547 18.3491 40.6809 18.314 40.8171 18.314C40.9534 18.314 41.0873 18.3491 41.2059 18.4161C44.452 20.0199 47.7068 21.615 50.9702 23.2016L57.6775 26.4852C58.5828 26.928 59.4821 27.3799 60.3951 27.806C60.5069 27.8495 60.6019 27.9276 60.6662 28.0288C60.7305 28.1301 60.7608 28.2493 60.7526 28.369C60.8181 29.7947 60.8637 31.2296 60.8135 32.666Z" fill="#1C1609"/>
<path d="M63.2175 45.8647C63.2404 45.886 63.2723 45.9104 63.2267 45.9378C63.2267 45.9378 63.1947 45.9165 63.178 45.9043L63.2175 45.8647Z" fill="white"/>
<path d="M62.822 19.5848C62.8144 19.5848 62.8068 19.603 62.7992 19.603C62.7916 19.603 62.7855 19.5893 62.7794 19.5817C62.7733 19.5741 62.7946 19.5635 62.8022 19.5635C62.8098 19.5635 62.8159 19.5772 62.822 19.5848Z" fill="#C1A575"/>
<path d="M17.4397 20.2984C17.461 20.2725 17.4808 20.2451 17.5006 20.2192L17.5477 20.2664L17.4625 20.3212L17.4397 20.2984Z" fill="#C1A575"/>
<path d="M17.4625 20.3273C17.4473 20.3547 17.4336 20.3881 17.4001 20.344C17.4128 20.3297 17.4265 20.3165 17.4412 20.3044L17.4625 20.3273Z" fill="#C1A575"/>
<path d="M39.237 70.664C38.8825 70.4662 38.5644 70.2806 38.2373 70.1071C38.1034 70.0356 38.1429 69.923 38.1429 69.821C38.1429 67.4412 38.1429 65.0619 38.1429 62.6831V59.4177C38.1429 58.9612 37.9817 58.7908 37.5206 58.7908H30.4314C29.984 58.7908 29.8045 58.9719 29.8045 59.4223C29.8045 60.3352 29.8045 61.2619 29.8045 62.181C29.8125 62.2825 29.7919 62.3842 29.7451 62.4746C29.488 62.1049 29.2384 61.7275 28.9706 61.3654C28.8486 61.2056 28.7599 61.0229 28.7097 60.8282C28.6595 60.6335 28.6489 60.4307 28.6785 60.2318C28.7317 59.7829 28.6207 59.3188 28.753 58.8745C28.8259 58.5743 28.986 58.3024 29.2132 58.093C29.4404 57.8837 29.7245 57.7464 30.0297 57.6983C30.1681 57.6709 30.1818 57.6328 30.1408 57.5096C29.725 56.426 29.443 55.2957 29.3008 54.1438C29.2105 53.4592 29.1642 52.7695 29.1624 52.0789C29.1563 49.8006 29.1471 47.5222 29.135 45.2438C29.1313 44.8079 29.3003 44.3883 29.6051 44.0767C29.9099 43.765 30.3257 43.5867 30.7616 43.5807C31.1872 43.5863 31.5932 43.7606 31.8905 44.0653C32.1878 44.37 32.352 44.7801 32.3471 45.2058C32.3471 45.7201 32.3471 46.2344 32.3471 46.7487C32.3471 46.8552 32.338 46.9602 32.4993 46.913C32.9375 46.7898 33.3301 46.9237 33.6998 47.1413C33.7418 47.1784 33.7959 47.1989 33.852 47.1989C33.908 47.1989 33.9621 47.1784 34.0041 47.1413C34.2065 46.9855 34.4442 46.8822 34.6962 46.8405C34.9481 46.7988 35.2064 46.8201 35.4482 46.9024C35.4482 45.8053 35.4482 44.7265 35.4482 43.6476C35.4424 43.304 35.5425 42.9669 35.735 42.6821C35.9274 42.3974 36.2029 42.1788 36.5239 42.056C36.7653 41.9673 37.0243 41.9373 37.2795 41.9685C37.5348 41.9997 37.7789 42.0912 37.9918 42.2354C38.2047 42.3796 38.3803 42.5724 38.5039 42.7979C38.6275 43.0233 38.6958 43.275 38.7029 43.532V47.4547C39.3313 47.1367 39.9765 47.2204 40.611 47.2037C40.7632 47.2037 40.8195 47.2478 40.818 47.406C40.818 49.2031 40.8514 51.0016 40.7997 52.7971C40.7693 53.8623 40.3432 54.8209 39.6904 55.67C39.164 56.3486 38.6527 57.0394 38.1201 57.7409C38.4323 57.8652 38.7081 58.0661 38.922 58.3252C39.1202 58.5789 39.2302 58.8904 39.2355 59.2123C39.2355 62.9849 39.2355 66.7565 39.2355 70.5271C39.2461 70.5544 39.2416 70.5879 39.237 70.664ZM37.6195 47.441C37.6195 46.1842 37.6195 44.9273 37.6195 43.6689C37.6195 43.2855 37.4171 43.0709 37.0854 43.074C36.8131 43.074 36.6381 43.2977 36.6289 43.6583C36.6289 43.9459 36.6289 44.2319 36.6289 44.5195C36.6289 46.2237 36.6289 47.928 36.6289 49.6322C36.6289 49.8361 36.5726 49.8985 36.3748 49.8817C36.1722 49.8672 35.9688 49.8672 35.7662 49.8817C35.576 49.8954 35.4969 49.8467 35.5075 49.6352C35.5258 49.2822 35.5075 48.9277 35.5075 48.5701C35.5075 48.1775 35.2838 47.9234 34.9506 47.931C34.6539 47.931 34.4728 48.1684 34.4682 48.5533C34.4637 48.9383 34.4576 49.2792 34.4682 49.6413C34.4682 49.8361 34.4074 49.8924 34.2217 49.8787C34.0023 49.8673 33.7823 49.8673 33.5629 49.8787C33.4107 49.8787 33.3422 49.8528 33.3514 49.6717C33.3696 49.2929 33.3514 48.9109 33.3514 48.532C33.3588 48.4609 33.352 48.3891 33.3313 48.3206C33.3107 48.2522 33.2767 48.1885 33.2312 48.1334C33.1657 48.055 33.0779 47.9985 32.9795 47.9713C32.8811 47.9441 32.7767 47.9476 32.6803 47.9812C32.4338 48.0634 32.376 48.2855 32.3669 48.5077C32.3547 48.8775 32.3547 49.2502 32.3669 49.62C32.3669 49.8102 32.3365 49.9 32.1219 49.8802C31.9119 49.8604 31.7005 49.8604 31.4904 49.8802C31.2789 49.9 31.2424 49.8132 31.2424 49.623C31.2515 48.214 31.2424 46.8035 31.2424 45.3945C31.2477 45.3103 31.2477 45.226 31.2424 45.1419C31.2259 45.0283 31.172 44.9235 31.0894 44.8439C31.0068 44.7643 30.9 44.7144 30.7859 44.7021C30.5349 44.6778 30.3994 44.8041 30.3173 45.0308C30.2819 45.1434 30.268 45.2616 30.2762 45.3792C30.2762 46.9556 30.2762 48.532 30.3142 50.1084C30.3462 51.2938 30.2884 52.4822 30.4344 53.666C30.5674 54.7071 30.8008 55.7329 31.1313 56.729C31.2104 56.974 31.3626 57.2022 31.3504 57.4685C31.3428 57.645 31.4113 57.6815 31.5696 57.68C33.3235 57.68 35.0784 57.68 36.8344 57.68C36.9607 57.68 37.0337 57.6557 37.0626 57.5126C37.107 57.3148 37.1966 57.1299 37.3243 56.9725C37.8244 56.3161 38.3245 55.6568 38.8246 54.9944C39.2166 54.4869 39.4835 53.8942 39.6037 53.2643C39.7133 52.6952 39.6874 52.1231 39.6889 51.5509C39.6889 50.5299 39.6889 49.5089 39.6889 48.4879C39.6889 48.3114 39.6554 48.281 39.4789 48.3358C39.2525 48.3927 39.0518 48.5239 38.9089 48.7085C38.766 48.8931 38.6891 49.1203 38.6907 49.3537C38.6801 49.9532 38.677 50.5528 38.6907 51.1508C38.6907 51.3333 38.6603 51.4125 38.4594 51.3957C38.2493 51.379 38.0381 51.379 37.828 51.3957C37.6332 51.4125 37.5891 51.3379 37.5906 51.1538C37.6241 49.9213 37.6195 48.6812 37.6195 47.441Z" fill="#C1A575"/>
<path d="M54.8258 60.2318C54.5869 60.2318 54.6174 60.1268 54.6828 59.9549C55.2706 58.3936 55.5856 56.743 55.614 55.075C55.6566 52.6404 55.646 50.2165 55.6582 47.7865C55.6655 47.3524 55.5011 46.933 55.2008 46.6195C54.9004 46.306 54.4884 46.1239 54.0544 46.1127C53.1581 46.1127 52.4536 46.8324 52.4475 47.7712C52.4475 48.2779 52.4475 48.7831 52.4475 49.2929C52.4475 49.3644 52.4856 49.4952 52.338 49.4526C51.8617 49.3157 51.4402 49.4602 51.0446 49.7037C50.9381 49.7691 50.8925 49.7326 50.8072 49.6748C50.637 49.5387 50.4388 49.4418 50.2268 49.391C50.0148 49.3402 49.7943 49.3369 49.5808 49.3811C49.3358 49.4329 49.345 49.3446 49.345 49.1711C49.345 48.2003 49.3571 47.2296 49.345 46.2588C49.3503 45.9833 49.2985 45.7098 49.1928 45.4553C49.0397 45.1144 48.7764 44.835 48.4452 44.6619C48.1139 44.4889 47.7341 44.4323 47.3669 44.5013C46.7582 44.6108 46.1161 45.3001 46.0872 45.9057C46.075 46.2009 46.0872 46.4961 46.0872 46.7913V49.9867C45.4785 49.6824 44.8577 49.7433 44.2369 49.7265C44.0193 49.7265 43.9706 49.7996 43.9721 50.0019C43.9797 51.6757 43.9721 53.3495 43.9721 55.0142C43.9638 55.9113 44.2063 56.793 44.6721 57.5598C45.2244 58.4728 45.9228 59.2732 46.5574 60.1222C46.6517 60.2485 46.6654 60.282 46.5026 60.3596C46.2082 60.4806 45.9582 60.6895 45.7866 60.9577C45.6151 61.2258 45.5304 61.5403 45.544 61.8584C45.544 63.8 45.544 65.7406 45.544 67.6801L45.614 67.6116C45.7527 67.478 45.9369 67.402 46.1295 67.3989C46.3221 67.3957 46.5087 67.4658 46.6517 67.5949C46.6517 65.7264 46.6517 63.8568 46.6517 61.9862C46.6517 61.478 46.8039 61.3304 47.3166 61.3304C49.6173 61.3304 51.918 61.3304 54.2187 61.3304C54.4272 60.9546 54.628 60.5924 54.8258 60.2318ZM53.0273 60.209C51.3657 60.2029 49.7036 60.2029 48.0409 60.209C47.8538 60.209 47.7366 60.1953 47.691 59.967C47.6329 59.7635 47.5287 59.5761 47.3866 59.4192C46.8054 58.6584 46.1922 57.9144 45.6672 57.1094C45.2931 56.5243 45.0946 55.8441 45.0951 55.1496C45.0707 53.7801 45.0875 52.3985 45.0799 51.023C45.0799 50.8464 45.1088 50.813 45.2883 50.8708C45.7798 51.0336 46.0644 51.3714 46.075 51.8903C46.0887 52.4883 46.0948 53.0878 46.075 53.6858C46.075 53.9003 46.1404 53.9445 46.3291 53.9308C46.5317 53.9155 46.7352 53.9155 46.9378 53.9308C47.1295 53.9475 47.1767 53.879 47.1767 53.6919C47.1675 52.4426 47.1767 51.1934 47.1767 49.9456V46.2268C47.1767 45.9757 47.2299 45.7581 47.481 45.6455C47.5383 45.6131 47.6023 45.5942 47.6681 45.5903C47.7338 45.5864 47.7996 45.5975 47.8604 45.6229C47.9212 45.6483 47.9754 45.6873 48.0188 45.7368C48.0622 45.7864 48.0937 45.8452 48.1109 45.9088C48.1502 46.029 48.1677 46.1552 48.1627 46.2816C48.1627 48.2308 48.1627 50.18 48.1627 52.1292C48.1627 52.3392 48.1946 52.4411 48.4335 52.4107C48.7059 52.3772 49.0772 52.5263 49.2324 52.3528C49.3876 52.1794 49.2735 51.8385 49.278 51.5692C49.278 51.3836 49.278 51.1979 49.278 51.0123C49.2791 50.8678 49.3358 50.7293 49.4364 50.6255C49.5371 50.5218 49.6738 50.4609 49.8182 50.4554C49.8861 50.4573 49.9529 50.4728 50.0147 50.5011C50.0764 50.5293 50.1319 50.5697 50.1777 50.6198C50.2236 50.6699 50.2589 50.7287 50.2815 50.7928C50.3042 50.8568 50.3138 50.9247 50.3097 50.9925C50.3218 51.3881 50.3203 51.7853 50.3097 52.1824C50.3097 52.3574 50.3568 52.4213 50.5379 52.4107C50.7722 52.397 51.0096 52.4015 51.2455 52.4107C51.387 52.4107 51.4326 52.3787 51.4281 52.2266C51.4144 51.8051 51.4281 51.3836 51.4281 50.9621C51.4345 50.8463 51.4813 50.7364 51.5602 50.6513C51.6391 50.5663 51.7452 50.5115 51.8602 50.4965C51.9156 50.4826 51.9733 50.4801 52.0297 50.4892C52.0861 50.4983 52.14 50.5188 52.1883 50.5494C52.2365 50.58 52.2781 50.6201 52.3103 50.6672C52.3426 50.7144 52.365 50.7676 52.376 50.8236C52.4658 51.1888 52.408 51.5631 52.4156 51.9329C52.4247 52.4076 52.4156 52.4076 52.8919 52.4076C53.537 52.4076 53.537 52.4076 53.5355 51.7701C53.5355 50.4615 53.5355 49.1534 53.5355 47.8458C53.5277 47.7633 53.5372 47.6801 53.5634 47.6015C53.5896 47.5229 53.6319 47.4506 53.6877 47.3893C53.7531 47.3162 53.8401 47.2657 53.936 47.2449C54.0319 47.2241 54.1319 47.2342 54.2218 47.2737C54.4485 47.3741 54.5078 47.5932 54.5093 47.8215C54.5093 48.8866 54.5337 49.9654 54.5093 51.0351C54.4728 52.3574 54.5002 53.6812 54.4561 55.002C54.3868 56.6415 54.0549 58.2592 53.4731 59.7936C53.461 59.8255 53.432 59.859 53.4381 59.8864C53.4914 60.2303 53.2707 60.2105 53.0273 60.209Z" fill="#C1A575"/>
<path d="M40.7175 30.9086C40.9169 30.0093 41.3034 29.174 41.6305 28.3219C41.6682 28.2016 41.7118 28.0832 41.7614 27.9673C41.8075 27.878 41.8297 27.7782 41.826 27.6777C41.8223 27.5772 41.7927 27.4794 41.7401 27.3937C41.2592 26.4716 41.3597 25.5936 41.9835 24.7552C42.0535 25.1356 42.2878 25.4369 42.4872 25.7458C42.8355 26.2705 42.974 26.907 42.8752 27.5291C42.8037 28.1088 42.8752 28.6916 42.8478 29.2729C42.8478 29.3216 42.8402 29.3855 42.9056 29.3946C42.971 29.4037 42.9847 29.3383 43.0121 29.3003C43.3375 28.8364 43.563 28.3099 43.674 27.7543C43.881 26.7607 43.8262 25.761 43.7364 24.7597C43.6791 24.1641 43.6583 23.5655 43.674 22.9673C43.6923 22.3921 43.7988 21.8428 44.2401 21.4213C44.2492 21.4122 44.269 21.4122 44.2979 21.4046C44.2051 22.0659 44.2805 22.7399 44.517 23.3644C44.5459 23.4405 44.5505 23.5561 44.657 23.544C44.7635 23.5318 44.7255 23.4222 44.7392 23.3523C44.863 22.7833 45.0734 22.2368 45.363 21.7317C45.7024 21.1018 46.066 20.4855 46.276 19.7901C46.4952 18.9859 46.4788 18.1356 46.2288 17.3403C46.3443 17.4952 46.4389 17.6645 46.5103 17.844C46.5959 18.0235 46.6721 18.2074 46.7386 18.3948C46.8351 18.6811 46.9906 18.9439 47.1951 19.1663C47.8311 19.8464 48.032 20.6803 47.9787 21.6009C47.9452 22.1776 47.7657 22.7208 47.6348 23.2746C47.4714 23.952 47.5246 24.6636 47.787 25.3091C47.8128 25.373 47.8159 25.478 47.9163 25.4734C48.0167 25.4688 48.0152 25.3684 48.038 25.3014C48.2242 24.7586 48.3268 24.1907 48.3424 23.617C48.3404 23.534 48.3496 23.4511 48.3698 23.3705C48.6059 23.7144 48.7757 24.0994 48.8704 24.5056C49.0254 25.1903 49.0306 25.9004 48.8856 26.5872C48.8527 26.6753 48.8498 26.7719 48.8773 26.8618C48.9048 26.9518 48.9612 27.0301 49.0377 27.0848C49.4804 27.4262 49.7864 27.9146 49.9005 28.4619C50.1303 28.3021 50.2687 28.1271 50.2398 27.8532C50.1835 27.3359 50.1059 26.82 50.0161 26.3072C49.8899 25.589 49.797 24.8708 50.1501 24.177C50.1693 24.1371 50.1974 24.1023 50.2322 24.075C50.2366 24.5333 50.3032 24.9889 50.43 25.4293C50.6218 26.114 50.9428 26.7439 51.2334 27.3861C51.3552 27.6539 51.4815 27.9202 51.6047 28.1864C51.6291 28.2382 51.6336 28.3097 51.7128 28.3051C51.7919 28.3006 51.7919 28.2488 51.8117 28.2017C52.2362 27.205 52.7779 26.2555 53.0776 25.2041C53.1951 24.7857 53.2419 24.3506 53.2161 23.9168C53.382 24.107 53.4879 24.3421 53.5204 24.5924C53.5811 25.0267 53.5724 25.4679 53.4946 25.8994C53.4018 26.5233 53.3105 27.1472 53.2329 27.7741C53.2128 27.905 53.2225 28.0388 53.2612 28.1655C53.3 28.2922 53.3667 28.4086 53.4565 28.506C54.0804 29.2318 54.3923 30.1128 54.6069 31.0303C54.6933 31.2864 54.7395 31.5544 54.7438 31.8246C54.6881 31.7855 54.637 31.74 54.5917 31.6892C54.1915 31.1201 53.6285 30.9177 52.9559 30.9177C49.8873 30.9238 46.8172 30.9238 43.7456 30.9177C42.7398 30.9193 41.7294 30.9132 40.7175 30.9086Z" fill="#D14947"/>
<path d="M27.4656 27.631C27.7209 27.9229 27.9223 28.2578 28.0606 28.6201C28.1202 28.7678 28.2224 28.8944 28.3543 28.9837C28.6841 29.2131 28.9899 29.4752 29.2672 29.7658C29.2909 29.7282 29.3061 29.6858 29.3116 29.6416C29.3171 29.5974 29.3129 29.5526 29.2992 29.5102C29.1878 28.9103 29.2457 28.2912 29.4666 27.7223C29.6339 27.2658 29.6324 26.7804 29.78 26.3224C30.0618 25.4228 30.6497 24.6503 31.4416 24.1389C31.243 25.1617 31.2596 26.2147 31.4903 27.2308C31.5344 27.4195 31.6425 27.453 31.8068 27.4226C31.9912 27.3645 32.1563 27.2573 32.2844 27.1126C32.4126 26.9678 32.4989 26.7909 32.5341 26.6009C32.5707 26.1444 32.4778 25.7092 32.4231 25.2679C32.3379 24.568 32.2831 23.8741 32.557 23.2031C32.5745 23.156 32.5791 23.105 32.5703 23.0555C32.5614 23.006 32.5395 22.9598 32.5068 22.9216C32.3835 22.7116 32.2511 22.5062 32.1248 22.2977C31.6227 21.4685 31.4584 20.624 31.8205 19.6729C32.1332 18.8347 32.2879 17.9458 32.277 17.0512C32.3637 17.094 32.4403 17.1546 32.5019 17.2291C32.5636 17.3035 32.6088 17.3902 32.6346 17.4833C32.8233 17.9261 32.8248 18.3963 32.8385 18.8726C32.8567 19.504 32.8506 20.1355 33.0135 20.7533C33.069 20.9473 33.1423 21.1358 33.2326 21.3163C33.2569 21.365 33.2797 21.4106 33.3391 21.4091C33.4304 21.4091 33.4106 21.3285 33.4136 21.2767C33.4363 20.9038 33.5402 20.5403 33.718 20.2116C33.7546 20.0909 33.7685 19.9645 33.759 19.8388C33.9021 19.8723 33.9234 20.0001 33.9751 20.1112C34.1284 20.4219 34.2174 20.7604 34.2368 21.1063C34.2368 21.1535 34.2247 21.2174 34.2855 21.2372C34.3464 21.257 34.389 21.2022 34.4179 21.1504C34.5802 20.8541 34.6836 20.529 34.7222 20.1933C34.7885 19.7174 34.8205 19.2374 34.8181 18.7569C34.8181 18.2518 34.8318 17.7466 35.0372 17.2688C35.1089 17.1046 35.2203 16.9608 35.3613 16.8503C35.372 17.1805 35.3887 17.4879 35.4222 17.7937C35.4994 18.4501 35.65 19.0958 35.8711 19.7186C36.1495 20.5235 36.0004 21.26 35.6017 21.9736C35.4328 22.278 35.2502 22.5701 35.0737 22.8668C35.0189 22.9551 34.9642 23.0464 35.0174 23.1498C35.4222 23.9198 35.3431 24.7293 35.235 25.5464C35.183 25.8455 35.1545 26.1482 35.1498 26.4518C35.1498 26.8033 35.5804 27.275 35.9334 27.2871C35.9729 27.2939 36.0134 27.2921 36.0522 27.2819C36.091 27.2716 36.1271 27.2532 36.1581 27.2278C36.1891 27.2024 36.2143 27.1707 36.232 27.1347C36.2497 27.0987 36.2594 27.0594 36.2606 27.0193C36.3784 26.3292 36.3999 25.6261 36.3245 24.9301C36.3154 24.851 36.2652 24.7673 36.3899 24.7065C36.4478 24.6791 36.4067 24.5665 36.3793 24.4965C36.3169 24.3337 36.2499 24.1709 36.1815 24.002C36.6166 24.1891 37.1994 24.851 37.4322 25.2436C37.7969 25.8535 38.0059 26.5439 38.0409 27.2537C38.0637 27.4459 38.1182 27.6331 38.2022 27.8075C38.3803 28.2551 38.4622 28.7352 38.4426 29.2165C38.4426 29.285 38.403 29.3839 38.4974 29.4159C38.5674 29.4387 38.61 29.3581 38.6602 29.3139C38.7551 29.2194 38.8568 29.1319 38.9645 29.0522C39.4606 28.7281 39.9247 28.3751 40.194 27.8243C40.2016 27.8075 40.2351 27.803 40.2807 27.7817C40.0127 28.8243 40.0967 29.9262 40.5196 30.9162H39.141C39.1882 30.4369 39.2536 29.9606 39.3327 29.4813C39.0614 29.9178 38.8875 30.4078 38.823 30.9177C38.7226 30.9177 38.6221 30.9284 38.5187 30.9284C35.9167 30.9284 33.3152 30.9284 30.7143 30.9284C30.0706 30.9284 29.4179 30.8584 28.794 31.0942C28.742 30.7324 28.6358 30.3806 28.479 30.0504C28.514 30.4643 28.5445 30.8401 28.5764 31.216C28.2449 31.3552 27.9463 31.5626 27.7 31.8246C27.4806 32.0948 27.2994 32.3938 27.1613 32.7132C26.9939 31.992 26.9331 31.2859 27.2419 30.5677C27.6009 29.7128 27.6859 28.7676 27.4854 27.8623C27.4742 27.7872 27.4676 27.7115 27.4656 27.6356V27.631Z" fill="#D14947"/>
<path d="M27.1628 32.7072C27.3009 32.3877 27.4821 32.0887 27.7015 31.8185C27.9478 31.5565 28.2464 31.3492 28.5779 31.2099C28.6495 31.1658 28.7225 31.1232 28.7955 31.0806C29.4194 30.8447 30.0722 30.9162 30.7158 30.9147C33.3178 30.9147 35.9193 30.9147 38.5202 30.9147C38.6206 30.9147 38.7211 30.9071 38.8245 30.9041H39.1425H40.5211H40.7205C41.7323 30.9041 42.7427 30.9147 43.7546 30.9162C46.8252 30.9162 49.8953 30.9162 52.9649 30.9162C53.6375 30.9162 54.2005 31.1186 54.6007 31.6877C54.646 31.7385 54.6971 31.784 54.7528 31.8231C54.9633 32.0259 55.1302 32.2695 55.2435 32.539C55.3568 32.8084 55.414 33.0981 55.4117 33.3904C55.4284 37.5505 55.4117 41.7106 55.4117 45.8677C55.4117 45.9072 55.4117 45.9468 55.4117 46.0198C55.2824 45.8864 55.1278 45.7802 54.9569 45.7073C54.786 45.6344 54.6023 45.5963 54.4166 45.5953C54.3237 45.5953 54.304 45.5451 54.3055 45.4675C54.307 45.3899 54.3055 45.3321 54.3055 45.2651C54.3055 41.4245 54.3055 37.585 54.3055 33.7464C54.3095 33.2886 54.1455 32.8452 53.8444 32.5002C53.4519 32.0255 52.9239 31.9951 52.373 32.0148C52.2513 32.0148 52.2756 32.1061 52.2756 32.1761C52.2756 32.4135 52.2665 32.6494 52.2756 32.8852C52.2756 33.0221 52.23 33.0571 52.1007 33.0556C51.139 33.0556 50.1753 33.0556 49.2096 33.0556C49.0863 33.0556 49.0483 33.0161 49.0574 32.9035C49.065 32.692 49.0468 32.4805 49.0574 32.2705C49.0681 32.0605 49.0087 32.0148 48.8064 32.0164C47.5891 32.0255 46.3718 32.0164 45.1621 32.0164H33.7286C33.3954 32.0164 33.3984 32.0164 33.3954 32.3557C33.3954 32.5824 33.4684 32.8837 33.3543 33.0145C33.2402 33.1454 32.9237 33.0526 32.6985 33.0541C31.9377 33.0541 31.1769 33.0541 30.4161 33.0617C30.2198 33.0617 30.1696 33.0054 30.1833 32.8198C30.1985 32.6022 30.1833 32.3815 30.1833 32.1624C30.1833 32.0757 30.1665 32.0209 30.0615 32.0103C29.3844 31.9753 28.7164 32.0833 28.3177 32.8532C28.1965 33.1042 28.139 33.3812 28.1504 33.6597V50.1997C28.1504 50.6151 28.2325 51.0031 28.5384 51.3105C28.6251 51.3972 28.6114 51.4627 28.5384 51.5433C28.3588 51.7213 28.1793 51.9009 28.0028 52.0804C27.9084 52.1778 27.8323 52.1869 27.7304 52.0804C27.3104 51.6676 27.0689 51.1066 27.0578 50.5177C27.0497 44.7964 27.0497 39.0752 27.0578 33.3539C27.0806 33.1365 27.1156 32.9206 27.1628 32.7072Z" fill="#C1A575"/>
<path d="M53.3058 41.9632C53.3058 43.1014 53.3058 44.2457 53.3058 45.3793C53.3058 45.571 53.2632 45.6379 53.0578 45.6349C52.157 45.6248 51.2552 45.6248 50.3523 45.6349C50.1439 45.6349 50.1028 45.5664 50.1028 45.3747C50.1089 43.0892 50.1089 40.8043 50.1028 38.5198C50.1028 38.3007 50.1576 38.2307 50.3828 38.2337C51.2683 38.2459 52.1534 38.2459 53.038 38.2337C53.2449 38.2337 53.3088 38.2824 53.3073 38.4985C53.2997 39.6519 53.3058 40.8083 53.3058 41.9632ZM51.2105 41.9161C51.2105 42.7164 51.2105 43.5183 51.2105 44.3187C51.2105 44.4709 51.2349 44.55 51.4144 44.5363C51.6247 44.5234 51.8356 44.5234 52.0459 44.5363C52.1813 44.5363 52.2163 44.4952 52.2163 44.3628C52.2163 42.7398 52.2163 41.1208 52.2163 39.5058C52.2163 39.3643 52.1615 39.3354 52.0383 39.34C51.8356 39.3522 51.6323 39.3522 51.4296 39.34C51.2486 39.3247 51.2044 39.3886 51.206 39.5636C51.2151 40.3473 51.2105 41.1309 51.2105 41.9161Z" fill="#C1A575"/>
<path d="M42.0504 45.6349C41.1648 45.6349 40.2792 45.6349 39.3951 45.6349C39.208 45.6349 39.1395 45.5877 39.1562 45.3944C39.173 45.1843 39.173 44.9731 39.1562 44.763C39.1395 44.5682 39.211 44.5226 39.3967 44.5241C40.7387 44.5241 42.0793 44.5241 43.4198 44.5241C43.8215 44.5241 43.8215 44.5241 43.8215 44.1315C43.8215 43.5228 43.8215 43.5228 43.2129 43.5228C41.9484 43.5228 40.6824 43.5228 39.418 43.5228C39.2247 43.5228 39.141 43.4848 39.1623 43.2748C39.1799 43.0723 39.1799 42.8687 39.1623 42.6662C39.1456 42.4653 39.2141 42.406 39.4164 42.4075C40.4192 42.4166 41.4235 42.4075 42.4262 42.4075C43.187 42.4075 43.9478 42.4075 44.7086 42.4075C44.8775 42.4075 44.943 42.444 44.9399 42.6327C44.9293 43.5457 44.9277 44.4708 44.9399 45.3899C44.9399 45.5953 44.8654 45.6242 44.6904 45.6227C43.8048 45.6318 42.9344 45.6349 42.0504 45.6349Z" fill="#C1A575"/>
<path d="M37.8782 25.0352C37.3882 24.2013 37.1934 23.3538 37.5891 22.4484C37.6225 22.3443 37.6359 22.2349 37.6286 22.1258C37.6697 20.9496 38.0745 19.8784 38.5796 18.76C38.6344 19.3945 38.6755 19.9606 38.7318 20.5236C38.8307 21.4804 39.0878 22.4142 39.4926 23.2868C39.523 23.3523 39.5322 23.4557 39.6311 23.439C39.73 23.4223 39.6889 23.3264 39.7026 23.267C39.7924 22.8836 39.8776 22.5062 39.981 22.0498C40.5897 23.824 40.4147 25.4597 39.552 27.0711C39.4515 26.8535 39.3724 26.6572 39.2735 26.4731C38.9418 25.8477 38.6025 25.2269 38.2647 24.6061C38.2388 24.5559 38.2266 24.4798 38.1536 24.4874C38.0805 24.495 38.0668 24.5787 38.0501 24.6395C38.0222 24.7823 37.9635 24.9173 37.8782 25.0352Z" fill="#D14947"/>
<path d="M29.7906 24.8709C29.7556 24.8085 29.7358 24.775 29.7176 24.7385C29.6674 24.6411 29.7039 24.46 29.5654 24.4585C29.4665 24.4585 29.4467 24.6244 29.398 24.7172C29.0115 25.4461 28.5627 26.1399 28.2279 26.8946C28.1838 26.9935 28.1442 27.094 28.1016 27.199C27.2678 26.5279 26.965 23.2656 27.6451 22.272C27.7349 22.6691 27.8216 23.051 27.9068 23.433C27.9205 23.4938 27.8962 23.5851 27.992 23.5851C28.0879 23.5851 28.0894 23.5075 28.1168 23.4482C28.5266 22.5515 28.7877 21.594 28.8898 20.6134C28.9446 20.0702 28.9978 19.5285 29.0085 18.9092C29.1807 19.2048 29.3244 19.5161 29.4376 19.8389C29.7395 20.5536 29.9294 21.3107 30.0006 22.0833C30.0128 22.2461 30.1527 22.3556 30.1923 22.5124C30.4206 23.3462 30.2486 24.1101 29.7906 24.8709Z" fill="#D14947"/>
<path d="M47.5359 38.2428C47.9924 38.2428 48.4489 38.2428 48.9053 38.2428C49.0575 38.2428 49.126 38.2793 49.1245 38.4543C49.1174 39.3734 49.1174 40.2929 49.1245 41.213C49.1245 41.3895 49.0742 41.4473 48.8947 41.4458C47.9756 41.4387 47.0561 41.4387 46.136 41.4458C45.9671 41.4458 45.9199 41.3956 45.9199 41.2297C45.926 40.3016 45.926 39.3734 45.9199 38.4452C45.9199 38.293 45.9671 38.2398 46.1223 38.2428C46.5864 38.2474 47.0627 38.2428 47.5359 38.2428ZM47.5359 39.3399C47.0124 39.3399 47.0124 39.3399 47.0124 39.8603C47.0124 40.3442 47.0124 40.3442 47.4948 40.3442C48.0182 40.3442 48.0182 40.3442 48.0182 39.8253C48.0213 39.3475 48.0213 39.3475 47.5389 39.3475L47.5359 39.3399Z" fill="#C1A575"/>
<path d="M47.5342 34.0583C47.9907 34.0583 48.4624 34.0583 48.9265 34.0583C49.0786 34.0583 49.1304 34.1039 49.1304 34.2591C49.1243 35.1873 49.1243 36.1155 49.1304 37.0437C49.1304 37.2141 49.0665 37.2567 48.9067 37.2552C47.9785 37.2491 47.0508 37.2491 46.1236 37.2552C45.9547 37.2552 45.9106 37.2004 45.9121 37.0346C45.9198 36.1216 45.9213 35.1965 45.9121 34.2759C45.9121 34.0872 45.9761 34.0522 46.1434 34.0568C46.606 34.0644 47.0701 34.0583 47.5342 34.0583ZM47.5235 36.1383C48.0181 36.1383 48.0181 36.1383 48.0181 35.6651C48.0181 35.1463 48.0181 35.1463 47.4885 35.1463C47.0168 35.1463 47.0168 35.1463 47.0168 35.6271C47.0168 36.1383 47.0168 36.1383 47.5235 36.1383Z" fill="#C1A575"/>
<path d="M32.3362 39.8436C32.3362 40.3077 32.3362 40.7718 32.3362 41.2359C32.3362 41.4063 32.2799 41.4505 32.1171 41.449C31.1981 41.4429 30.279 41.4429 29.36 41.449C29.1926 41.449 29.1408 41.3927 29.1424 41.2298C29.1485 40.3017 29.1485 39.374 29.1424 38.4468C29.1424 38.2946 29.1804 38.2368 29.3402 38.2368C30.2765 38.2429 31.2128 38.2429 32.1491 38.2368C32.2921 38.2368 32.3378 38.284 32.3347 38.427C32.3317 38.8987 32.3362 39.3719 32.3362 39.8436ZM31.2529 39.8604C31.2529 39.3415 31.2529 39.3415 30.7325 39.3415C30.2486 39.3415 30.2486 39.3415 30.2516 39.8269C30.2516 40.3427 30.2516 40.3427 30.7735 40.3427C31.2529 40.3427 31.2529 40.3427 31.2529 39.8604Z" fill="#C1A575"/>
<path d="M41.7354 39.836C41.7354 39.3795 41.7354 38.9078 41.7354 38.4437C41.7354 38.2916 41.7704 38.2368 41.9316 38.2383C42.869 38.2383 43.8048 38.2383 44.7421 38.2383C44.8821 38.2383 44.9338 38.2809 44.9338 38.427C44.9277 39.3633 44.9277 40.2996 44.9338 41.2359C44.9338 41.4109 44.8623 41.4474 44.7056 41.4459C43.7926 41.4459 42.8674 41.4459 41.9469 41.4459C41.7749 41.4459 41.7338 41.385 41.7369 41.2253C41.7399 40.7642 41.7354 40.3001 41.7354 39.836ZM43.823 39.8528C43.823 39.3415 43.823 39.3415 43.3376 39.3415C42.8233 39.3415 42.8233 39.3415 42.8233 39.8482C42.8233 40.3549 42.8233 40.3427 43.3209 40.3427C43.8185 40.3427 43.8245 40.3442 43.823 39.8528Z" fill="#C1A575"/>
<path d="M34.9079 41.4383C34.4514 41.4383 33.9949 41.4383 33.5384 41.4383C33.3863 41.4383 33.333 41.3911 33.333 41.2344C33.3391 40.2981 33.3391 39.3613 33.333 38.424C33.333 38.2718 33.3832 38.2368 33.5217 38.2383C34.459 38.2383 35.3958 38.2383 36.3321 38.2383C36.4843 38.2383 36.5375 38.2718 36.536 38.4346C36.5279 39.3628 36.5279 40.2915 36.536 41.2207C36.536 41.3866 36.4873 41.4413 36.3215 41.4383C35.8528 41.4337 35.3796 41.4383 34.9079 41.4383ZM35.4496 39.8421C35.4496 39.34 35.4496 39.34 34.9566 39.3415C34.4636 39.343 34.4438 39.3415 34.4438 39.8452C34.4438 40.3488 34.4438 40.3442 34.9353 40.3442C35.4268 40.3442 35.4481 40.3443 35.4496 39.8421Z" fill="#C1A575"/>
<path d="M40.7312 39.8528C40.7312 40.3093 40.7312 40.7658 40.7312 41.2223C40.7312 41.3744 40.7038 41.4475 40.5242 41.446C39.6052 41.4389 38.6856 41.4389 37.7655 41.446C37.5951 41.446 37.5312 41.4049 37.5327 41.2208C37.5419 40.3017 37.5419 39.3821 37.5327 38.4621C37.5327 38.3023 37.5708 38.2414 37.7412 38.2429C38.6674 38.249 39.595 38.249 40.5242 38.2429C40.6947 38.2429 40.7342 38.3038 40.7312 38.4636C40.7251 38.9246 40.7312 39.3887 40.7312 39.8528ZM38.6253 39.8315C38.6253 40.3443 38.6253 40.3443 39.1244 40.3428C39.6234 40.3413 39.6265 40.3428 39.6265 39.8315C39.6265 39.3203 39.6265 39.34 39.1244 39.34C38.6222 39.34 38.6268 39.3476 38.6253 39.8315Z" fill="#C1A575"/>
<path d="M53.3029 35.6577C53.3029 36.1142 53.3029 36.5844 53.3029 37.0484C53.3029 37.2006 53.2709 37.2539 53.1096 37.2523C52.1743 37.2463 51.239 37.2463 50.3037 37.2523C50.1516 37.2523 50.0999 37.2021 50.0999 37.0484C50.1059 36.1132 50.1059 35.1779 50.0999 34.2426C50.0999 34.0904 50.1485 34.0554 50.2901 34.0554C51.2335 34.0554 52.1774 34.0554 53.1218 34.0554C53.2663 34.0554 53.3044 34.095 53.3013 34.2411C53.2968 34.7128 53.3029 35.186 53.3029 35.6577ZM52.2103 35.6577C52.2103 35.1479 52.2103 35.1479 51.6945 35.1479C51.2122 35.1479 51.2122 35.1479 51.2122 35.6364C51.2122 36.1248 51.2122 36.14 51.7249 36.14C52.2164 36.1385 52.2164 36.1385 52.2164 35.6562L52.2103 35.6577Z" fill="#C1A575"/>
<path d="M37.5389 35.6592C37.5389 35.1875 37.5389 34.7143 37.5389 34.2426C37.5389 34.1011 37.5708 34.0539 37.7184 34.0555C38.6618 34.0555 39.6067 34.0555 40.5501 34.0555C40.7175 34.0555 40.7403 34.1239 40.7388 34.2654C40.7388 35.1936 40.7388 36.1208 40.7388 37.047C40.7388 37.1991 40.7023 37.2554 40.5425 37.2539C39.6072 37.2478 38.672 37.2478 37.7367 37.2539C37.5845 37.2539 37.5343 37.2067 37.5389 37.0515C37.5449 36.5859 37.5389 36.1218 37.5389 35.6592ZM39.1168 36.1386C39.6204 36.1386 39.6204 36.1386 39.622 35.6319C39.6235 35.1252 39.622 35.148 39.1381 35.1495C38.6542 35.151 38.6344 35.1495 38.6329 35.6608C38.6314 36.1401 38.6314 36.1401 39.1168 36.1386Z" fill="#C1A575"/>
<path d="M43.3378 37.2492C42.8661 37.2492 42.3944 37.2492 41.9227 37.2492C41.7858 37.2492 41.7295 37.2142 41.731 37.0666C41.731 36.1222 41.731 35.1783 41.731 34.2349C41.731 34.0827 41.7782 34.0508 41.9181 34.0508C42.8616 34.0508 43.805 34.0508 44.7484 34.0508C44.8701 34.0508 44.9294 34.0736 44.9294 34.2182C44.9294 35.1697 44.9294 36.1212 44.9294 37.0727C44.9294 37.2355 44.8503 37.2477 44.7255 37.2462C44.2645 37.2477 43.8019 37.2492 43.3378 37.2492ZM43.3272 36.1384C43.8202 36.1384 43.8202 36.1384 43.8202 35.6652C43.8202 35.1479 43.8202 35.1479 43.315 35.1494C42.8098 35.1509 42.8311 35.1494 42.8311 35.6409C42.8311 36.1324 42.8296 36.1384 43.3272 36.1384Z" fill="#C1A575"/>
<path d="M33.3344 35.6318C33.3344 35.1753 33.3344 34.7188 33.3344 34.2623C33.3344 34.1223 33.3542 34.0493 33.5231 34.0508C34.468 34.0508 35.4114 34.0508 36.3563 34.0508C36.4979 34.0508 36.542 34.0888 36.5405 34.2349C36.5344 35.1722 36.5344 36.1085 36.5405 37.0438C36.5405 37.196 36.5009 37.2493 36.3442 37.2477C35.4079 37.2416 34.4716 37.2416 33.5353 37.2477C33.3831 37.2477 33.3298 37.199 33.3329 37.0454C33.339 36.5767 33.3344 36.105 33.3344 35.6318ZM34.9352 36.1385C35.4449 36.1385 35.4449 36.1385 35.4449 35.6302C35.4449 35.1509 35.4449 35.1509 34.9549 35.1464C34.465 35.1418 34.4482 35.1464 34.4498 35.6607C34.4513 36.1385 34.4513 36.1385 34.9352 36.1385Z" fill="#C1A575"/>
<path d="M30.7613 37.2492C30.2972 37.2492 29.8331 37.2492 29.3706 37.2492C29.2184 37.2492 29.1484 37.2203 29.1499 37.0407C29.1591 36.1125 29.1499 35.1859 29.1499 34.2577C29.1499 34.1055 29.1834 34.0508 29.3447 34.0523C30.28 34.0584 31.2158 34.0584 32.1521 34.0523C32.3179 34.0523 32.3453 34.1116 32.3438 34.2577C32.3438 35.1859 32.3438 36.1141 32.3438 37.0407C32.3438 37.2142 32.286 37.2538 32.1247 37.2507C31.6743 37.2431 31.2178 37.2492 30.7613 37.2492ZM30.2592 35.6226C30.2592 36.1384 30.2592 36.1384 30.7841 36.1384C31.2558 36.1384 31.2558 36.1384 31.2558 35.6682C31.2558 35.1463 31.2558 35.1463 30.7278 35.1463C30.2531 35.1463 30.2531 35.1463 30.2531 35.6226H30.2592Z" fill="#C1A575"/>
<path d="M49.1183 44.448C48.8054 44.278 48.469 44.1554 48.1201 44.0844C47.968 44.06 48.0166 43.9246 48.0258 43.8409C48.0456 43.6401 47.9725 43.5655 47.7732 43.5914C47.6718 43.5975 47.5702 43.5975 47.4689 43.5914C47.335 43.5914 47.1767 43.5533 47.0717 43.6096C46.9667 43.6659 47.0276 43.8546 47.0169 43.9824C47.0192 44.0155 47.0088 44.0481 46.9879 44.0738C46.967 44.0995 46.9371 44.1163 46.9043 44.1209C46.5717 44.2077 46.2556 44.3486 45.9685 44.5378C45.8909 44.4967 45.9183 44.4313 45.9168 44.3765C45.9168 43.8211 45.9168 43.2657 45.9168 42.7104C45.9168 42.5475 45.9609 42.4897 46.1298 42.4912C47.056 42.4983 47.9822 42.4983 48.9083 42.4912C49.0711 42.4912 49.1274 42.5354 49.1244 42.7058C49.1107 43.2779 49.1183 43.847 49.1183 44.448Z" fill="#C1A575"/>
<path d="M35.1316 42.4988C34.9687 42.7532 34.9053 43.0588 34.9535 43.357C34.9809 43.5441 34.9216 43.6309 34.7268 43.5943C34.4894 43.5502 34.4103 43.6537 34.4423 43.8804C34.4484 43.9818 34.4484 44.0834 34.4423 44.1847C34.4423 44.5545 34.4423 44.5606 34.7938 44.5971C34.9003 44.6077 34.917 44.6549 34.9155 44.7416C34.9155 45.011 34.9155 45.2803 34.9155 45.5496C34.9155 45.6607 34.8759 45.7018 34.7633 45.7018C34.3413 45.7018 33.9198 45.7018 33.4989 45.7018C33.3619 45.7018 33.333 45.6364 33.333 45.5131C33.333 44.5677 33.333 43.6233 33.333 42.6799C33.333 42.549 33.3726 42.5018 33.505 42.5018C34.0299 42.5003 34.5518 42.4988 35.1316 42.4988Z" fill="#C1A575"/>
<path d="M51.0811 26.0059C50.7355 25.6117 50.5249 25.1175 50.48 24.5952C50.4351 24.0729 50.5583 23.5499 50.8316 23.1026C51.0431 22.7694 51.2881 22.4559 51.3855 22.0603C51.9941 22.8546 52.0839 23.6626 51.6472 24.6045C51.527 24.8646 51.3931 25.1172 51.2576 25.3653C51.1452 25.5603 51.0844 25.7808 51.0811 26.0059Z" fill="#D14947"/>
<path d="M32.3377 43.8378C31.4248 42.8366 30.0812 42.8229 29.1423 43.7541C29.1423 43.3433 29.1423 42.9705 29.1423 42.5977C29.1423 42.4881 29.2352 42.4957 29.3097 42.4957C30.2622 42.4957 31.2143 42.4957 32.1658 42.4957C32.2814 42.4957 32.3316 42.5292 32.3301 42.6479C32.3332 43.0298 32.3377 43.4087 32.3377 43.8378Z" fill="#C1A575"/>
<path d="M42.5053 52.9524C42.2877 52.928 41.9316 53.071 41.781 52.8976C41.6304 52.7241 41.7551 52.4 41.7323 52.1368C41.714 51.9268 41.7825 51.8598 41.994 51.869C42.382 51.8872 42.77 51.8811 43.1565 51.869C43.3087 51.869 43.3696 51.904 43.3604 52.0653C43.3467 52.3011 43.3513 52.537 43.3604 52.7728C43.3604 52.9067 43.3163 52.9508 43.1854 52.9463C42.9739 52.9478 42.764 52.9524 42.5053 52.9524Z" fill="#C1A575"/>
<path d="M42.5525 21.0652C43.009 21.6906 42.9999 22.3144 42.653 22.9535C42.496 23.1973 42.3798 23.4651 42.3091 23.7463C42.1539 23.5592 42.0411 23.3408 41.9783 23.1059C41.9155 22.8711 41.9043 22.6255 41.9454 22.386C42.0124 21.8838 42.3958 21.5445 42.5525 21.0652Z" fill="#D14947"/>
<path d="M44.9931 16.3042C45.2336 16.6872 45.3713 17.1258 45.3929 17.5776C45.4145 18.0294 45.3193 18.4791 45.1164 18.8833C44.8336 18.5181 44.6701 18.0746 44.6481 17.6132C44.626 17.1518 44.7465 16.6948 44.9931 16.3042Z" fill="#D14947"/>
<path d="M27.467 27.6295L27.4595 27.6265L27.4655 27.631L27.467 27.6295Z" fill="#D14947"/>
<path d="M37.6194 47.4412C37.6194 48.6813 37.6194 49.9214 37.6194 51.163C37.6194 51.3471 37.662 51.4217 37.8568 51.405C38.0669 51.3882 38.2781 51.3882 38.4883 51.405C38.6891 51.4217 38.7226 51.3426 38.7195 51.16C38.7089 50.562 38.7119 49.9625 38.7195 49.363C38.718 49.1295 38.7948 48.9023 38.9377 48.7177C39.0806 48.5332 39.2813 48.4019 39.5077 48.345C39.6843 48.2917 39.7193 48.3222 39.7177 48.4972C39.7101 49.5182 39.7177 50.5392 39.7177 51.5602C39.7177 52.1323 39.7421 52.7044 39.6325 53.2735C39.5124 53.9034 39.2455 54.4961 38.8534 55.0036C38.3523 55.6609 37.8522 56.3203 37.3531 56.9817C37.2254 57.1392 37.1358 57.3241 37.0914 57.5219C37.0625 57.6649 36.9895 57.6893 36.8632 57.6893C35.1082 57.6893 33.3533 57.6893 31.5984 57.6893C31.4462 57.6893 31.3716 57.6543 31.3793 57.4778C31.3914 57.2115 31.2393 56.9832 31.1601 56.7382C30.8271 55.7403 30.5917 54.7125 30.4572 53.6691C30.305 52.4853 30.3689 51.2969 30.3369 50.1116C30.2943 48.5352 30.305 46.9588 30.2989 45.3824C30.2907 45.2647 30.3047 45.1465 30.34 45.0339C30.4222 44.8072 30.5576 44.6809 30.8086 44.7053C30.9227 44.7176 31.0295 44.7675 31.1121 44.8471C31.1948 44.9267 31.2486 45.0315 31.2651 45.145C31.2705 45.2291 31.2705 45.3135 31.2651 45.3976C31.2651 46.8066 31.2651 48.2172 31.2651 49.6262C31.2651 49.8164 31.3017 49.9031 31.5132 49.8833C31.7232 49.8636 31.9346 49.8636 32.1446 49.8833C32.3592 49.9031 32.3972 49.8134 32.3896 49.6232C32.3774 49.2534 32.3774 48.8806 32.3896 48.5109C32.3896 48.2857 32.4566 48.0665 32.7031 47.9844C32.7995 47.9507 32.9038 47.9473 33.0022 47.9745C33.1006 48.0016 33.1884 48.0582 33.2539 48.1365C33.2994 48.1917 33.3334 48.2553 33.3541 48.3238C33.3747 48.3922 33.3815 48.4641 33.3741 48.5352C33.3741 48.9156 33.3878 49.296 33.3741 49.6749C33.365 49.856 33.4319 49.8879 33.5856 49.8818C33.8051 49.8704 34.025 49.8704 34.2445 49.8818C34.4301 49.8955 34.4986 49.8392 34.491 49.6445C34.4757 49.2823 34.491 48.9202 34.491 48.5565C34.491 48.1928 34.6766 47.9387 34.9733 47.9342C35.3066 47.9265 35.5287 48.1807 35.5302 48.5732C35.5302 48.9278 35.5439 49.2823 35.5302 49.6384C35.5196 49.8499 35.5987 49.8986 35.7889 49.8849C35.9915 49.8704 36.1949 49.8704 36.3976 49.8849C36.5954 49.9016 36.6532 49.8392 36.6517 49.6353C36.6441 47.9311 36.6517 46.2269 36.6517 44.5227C36.6517 44.2351 36.6517 43.949 36.6517 43.6614C36.6517 43.3008 36.8327 43.0787 37.1082 43.0771C37.4399 43.0771 37.6407 43.2887 37.6422 43.6721C37.6225 44.9274 37.6194 46.1843 37.6194 47.4412Z" fill="#FFF3D2"/>
<path d="M47.1796 49.9488V46.2269C47.1796 45.9758 47.2328 45.7582 47.4839 45.6456C47.5412 45.6132 47.6052 45.5943 47.671 45.5904C47.7368 45.5864 47.8026 45.5976 47.8633 45.623C47.9241 45.6484 47.9783 45.6874 48.0217 45.7369C48.0651 45.7865 48.0967 45.8453 48.1139 45.9089C48.1531 46.0291 48.1706 46.1553 48.1656 46.2817C48.1656 48.2309 48.1656 50.1801 48.1656 52.1293C48.1656 52.3392 48.1976 52.4412 48.4364 52.4108C48.7088 52.3773 49.0801 52.5264 49.2353 52.3529C49.3905 52.1795 49.2764 51.8386 49.2809 51.5693C49.2809 51.3837 49.2809 51.198 49.2809 51.0124C49.282 50.8679 49.3388 50.7294 49.4394 50.6256C49.54 50.5219 49.6767 50.461 49.8211 50.4555C49.889 50.4574 49.9558 50.4729 50.0176 50.5012C50.0794 50.5294 50.1348 50.5698 50.1807 50.6199C50.2265 50.67 50.2618 50.7288 50.2845 50.7929C50.3071 50.8569 50.3167 50.9248 50.3126 50.9926C50.3248 51.3882 50.3233 51.7854 50.3126 52.1825C50.3126 52.3575 50.3598 52.4214 50.5408 52.4108C50.7752 52.3971 51.0125 52.4016 51.2484 52.4108C51.3899 52.4108 51.4356 52.3788 51.431 52.2266C51.4173 51.8052 51.431 51.3837 51.431 50.9622C51.4375 50.8464 51.4842 50.7364 51.5631 50.6514C51.642 50.5664 51.7481 50.5116 51.8631 50.4966C51.9186 50.4827 51.9762 50.4802 52.0326 50.4893C52.089 50.4984 52.143 50.5189 52.1912 50.5495C52.2395 50.5801 52.281 50.6202 52.3133 50.6673C52.3455 50.7145 52.3679 50.7677 52.379 50.8237C52.4687 51.1889 52.4109 51.5632 52.4185 51.933C52.4277 52.4077 52.4185 52.4077 52.8948 52.4077C53.54 52.4077 53.54 52.4077 53.5384 51.7702C53.5384 50.4616 53.5384 49.1535 53.5384 47.8459C53.5306 47.7634 53.5401 47.6802 53.5663 47.6016C53.5925 47.523 53.6348 47.4507 53.6906 47.3894C53.7561 47.3163 53.843 47.2658 53.9389 47.245C54.0348 47.2242 54.1348 47.2343 54.2247 47.2738C54.4514 47.3742 54.5107 47.5933 54.5123 47.8215C54.5123 48.8867 54.5366 49.9655 54.5123 51.0352C54.4758 52.3575 54.5031 53.6813 54.459 55.0021C54.3897 56.6416 54.0578 58.2593 53.476 59.7937C53.4639 59.8256 53.435 59.8591 53.4411 59.8865C53.5065 60.2395 53.2889 60.2197 53.0424 60.2182C51.3808 60.2121 49.7187 60.2121 48.056 60.2182C47.8689 60.2182 47.7517 60.2045 47.7061 59.9762C47.648 59.7727 47.5438 59.5853 47.4017 59.4285C46.8205 58.6677 46.2073 57.9236 45.6823 57.1186C45.3082 56.5335 45.1097 55.8533 45.1102 55.1588C45.0858 53.7893 45.1026 52.4077 45.095 51.0322C45.095 50.8557 45.1239 50.8222 45.3034 50.88C45.7949 51.0428 46.0795 51.3806 46.0901 51.8995C46.1038 52.4975 46.1099 53.097 46.0901 53.695C46.0901 53.9095 46.1555 53.9537 46.3442 53.94C46.5468 53.9247 46.7503 53.9247 46.9529 53.94C47.1446 53.9567 47.1918 53.8882 47.1918 53.7011C47.175 52.4457 47.1796 51.1965 47.1796 49.9488Z" fill="#FFF3D2"/>
</g>
<defs>
<clipPath id="clip0_163_11102">
<rect width="75.3202" height="72" fill="white" transform="translate(2.83984)"/>
</clipPath>
</defs>
</svg>
