<svg width="64" height="64" viewBox="0 0 64 64" fill="none" xmlns="http://www.w3.org/2000/svg">
<g clip-path="url(#clip0_1166_36287)">
<path d="M56.1691 61.0179C56.1691 61.201 55.9399 62.4841 54.4276 63.2166C52.9153 63.9491 51.5412 64.1783 51.2672 63.8582C50.9931 63.538 41.0508 39.9449 41.006 39.7617C40.9611 39.5786 41.2655 38.891 41.2655 38.891C41.2655 38.891 31.6846 17.744 29.6872 13.1598C29.4544 12.6237 29.3234 12.3108 29.3234 12.2902C29.3234 12.061 29.6872 11.5625 29.6872 11.5625C29.6872 11.5625 29.0008 11.7918 28.7716 11.6535C28.5424 11.5152 24.7501 2.33462 24.4056 1.00907C24.3922 0.964851 24.3837 0.919305 24.3802 0.873237C24.3665 0.573925 24.4642 0.280155 24.6542 0.0485576C24.8386 -0.13457 25.2497 0.27777 25.5711 0.919322C25.8925 1.56087 33.1206 15.9467 33.5111 16.6622C34.0544 17.6579 37.3992 23.809 37.4792 23.9594C37.461 23.9303 37.29 23.6902 37.1615 23.7326C37.0329 23.7751 37.4817 25.8853 37.8479 26.1145C38.2142 26.3437 38.3063 26.1145 38.3063 26.1145L44.3532 37.4296C44.3532 37.4296 44.9026 37.5218 45.0808 37.5218C45.2591 37.5218 56.1691 60.8347 56.1691 61.0179Z" fill="#4A94C6"/>
<path d="M44.4404 38.6591L41.9663 39.69C41.9663 39.69 31.1727 15.2964 30.5591 13.7841C30.1686 12.8297 29.8605 12.9437 29.6859 13.1571C29.453 12.6211 29.3221 12.3082 29.3221 12.2876C29.3221 12.0584 29.6859 11.5599 29.6859 11.5599C29.6859 11.5599 28.9995 11.7891 28.7702 11.6509C28.541 11.5126 24.7487 2.33199 24.4043 1.00643C24.4916 0.80269 24.6165 0.635329 24.7912 0.664435C25.2035 0.733563 36.6763 23.6839 36.6763 23.6839C36.6763 23.6839 36.3331 24.3716 37.0195 25.7456C37.7059 27.1197 38.3256 26.8456 38.3256 26.8456L44.4404 38.6591Z" fill="#58C7ED"/>
<path d="M56.1697 61.0179C56.1697 61.201 55.9404 62.4842 54.4281 63.2167C52.9158 63.9492 51.5418 64.1784 51.2677 63.8582C50.9936 63.5381 41.0513 39.9449 41.0065 39.7618C40.9616 39.5787 41.266 38.891 41.266 38.891C41.266 38.891 42.3805 38.731 43.2064 38.2495C44.0323 37.768 44.3513 37.4248 44.3513 37.4248C44.3513 37.4248 44.9007 37.517 45.0789 37.517C45.2572 37.517 55.0867 58.5269 56.0836 60.8166C56.1164 60.8819 56.1452 60.9491 56.1697 61.0179Z" fill="#1C75BC"/>
<path d="M56.1697 61.0176C56.1697 61.2008 55.9404 62.4839 54.4281 63.2164C52.9158 63.9489 51.5418 64.1781 51.2677 63.8579C50.9936 63.5378 41.0513 39.9446 41.0065 39.7615C40.9616 39.5784 41.266 38.8907 41.266 38.8907C41.266 38.8907 41.357 39.5626 41.4479 39.6548C41.5389 39.747 42.6704 39.3795 43.5557 38.9829C44.0816 38.7366 44.5396 38.3657 44.8897 37.9023C44.7381 38.1134 44.099 38.9465 43.2768 39.3189C42.3296 39.7457 41.933 39.8986 41.779 39.9604C41.625 40.0223 51.7055 62.9568 51.7673 63.0793C51.8292 63.2018 53.5076 62.9872 54.1177 62.7155C54.7277 62.4438 55.8289 61.1571 55.8289 60.974C55.8289 60.7908 55.026 58.9862 54.9799 58.8722L56.086 60.8187C56.1179 60.8833 56.1459 60.9497 56.1697 61.0176Z" fill="#2B3990"/>
<path d="M42.8219 40.7208C42.8219 40.7208 46.0345 48.6645 46.3037 49.1835C46.573 49.7026 47.6778 52.4507 47.7687 52.7866C47.8597 53.1226 48.899 55.1079 48.899 55.1079C48.899 55.1079 47.3418 50.8632 47.189 50.4654C47.0362 50.0676 45.7847 47.5038 45.6003 46.9484C45.416 46.3929 44.4712 43.0396 44.0128 42.4903C43.5544 41.9409 43.5277 41.8184 43.2852 41.2993C43.0815 40.8912 42.8572 40.4938 42.6133 40.1084L42.8219 40.7208Z" fill="#2B3990"/>
<path d="M48.4082 52.9395C48.4082 52.9395 50.2104 58.01 50.3329 58.3144C50.4553 58.6188 51.4632 59.7503 51.6463 60.2088C51.8294 60.6672 52.5922 62.3457 52.5922 62.3457C52.5922 62.3457 51.6463 59.5672 51.4316 59.3841C51.217 59.201 50.5463 58.2235 50.5463 58.0707C50.5463 57.9179 49.9666 55.5966 49.7519 55.2C49.5373 54.8035 48.4082 52.9395 48.4082 52.9395Z" fill="#2B3990"/>
<path d="M44.5918 38.3115C44.5918 38.3115 46.0883 41.09 46.8524 42.7393C47.0161 43.0922 47.8299 44.6337 47.9827 44.9999C48.1355 45.3662 48.6849 46.9537 48.6849 46.9537C48.6849 46.9537 47.5849 44.328 47.3108 43.9921C47.0367 43.6562 46.3333 42.6484 46.2108 42.2506C46.0883 41.8528 46.394 42.1293 46.394 42.1293L45.6918 40.7213C45.4783 40.2968 44.5918 38.3115 44.5918 38.3115Z" fill="#2B3990"/>
<path d="M52.625 54.1924L54.5242 58.1618C54.5242 58.1618 53.7856 55.5361 52.625 54.1924Z" fill="#2B3990"/>
</g>
<defs>
<clipPath id="clip0_1166_36287">
<rect width="46.5726" height="64" fill="white" transform="translate(9.59961)"/>
</clipPath>
</defs>
</svg>
