<svg width="14" height="16" viewBox="0 0 14 16" fill="none" xmlns="http://www.w3.org/2000/svg">
<path d="M6.97923 3.85258e-06C6.80486 -0.000873837 6.67321 0.148333 6.67028 0.325334C6.66648 0.551193 6.67028 0.777637 6.67028 1.00379V1.29313C6.60182 1.22233 6.53336 1.15183 6.4649 1.08103C6.37772 0.991208 6.29083 0.901391 6.20364 0.811574C6.08896 0.693379 5.94824 0.621408 5.77826 0.656516C5.50676 0.712395 5.36779 1.04153 5.51378 1.27616C5.55298 1.33907 5.61062 1.39114 5.66182 1.4441C5.85696 1.64567 6.05239 1.84725 6.24753 2.04882C6.38854 2.19423 6.52927 2.33963 6.67028 2.48504V2.96952C6.49884 2.79662 6.32769 2.62371 6.15625 2.45081C5.84057 2.1325 5.52519 1.8139 5.20981 1.49559C5.13374 1.41894 5.04422 1.36393 4.93304 1.3575C4.6788 1.34287 4.47957 1.58599 4.53837 1.83262C4.57114 1.971 4.69782 2.07135 4.79408 2.16819C5.14954 2.52687 5.50471 2.88556 5.86018 3.24424C6.04098 3.4268 6.22178 3.60906 6.40259 3.79162C6.49182 3.88173 6.57842 3.97652 6.67058 4.064V5.6848C6.54653 5.12191 6.42277 4.55902 6.29873 3.99613C6.27913 3.90689 6.25952 3.81766 6.23992 3.72843C6.22851 3.67606 6.18053 3.6313 6.12963 3.61813C5.57112 3.47419 5.01291 3.33025 4.4547 3.18602C4.37512 3.16554 4.29555 3.14506 4.21597 3.12458C4.19842 3.12019 4.18028 3.11873 4.16243 3.12019C4.15219 3.13482 4.14429 3.1512 4.13961 3.16876C4.11767 3.24775 4.09543 3.32703 4.07349 3.40603C3.91902 3.9616 3.76454 4.51718 3.61007 5.07276C3.59603 5.12337 3.61095 5.18744 3.65044 5.22343C3.71803 5.28487 3.78532 5.3466 3.8529 5.40833C4.27829 5.79715 4.70397 6.18596 5.12935 6.57449C4.66154 6.30445 4.19374 6.03441 3.72563 5.76409C3.69608 5.64062 3.65717 5.51804 3.62382 5.39575C3.55624 5.14795 3.48866 4.90015 3.42078 4.65235C3.28796 4.16523 3.15514 3.67811 3.02202 3.19128C2.98603 3.05934 2.96234 2.8996 2.85906 2.80217C2.67475 2.6281 2.36463 2.67901 2.25024 2.90662C2.20021 3.00609 2.20284 3.11112 2.23151 3.21527C2.34942 3.64768 2.46761 4.08009 2.58552 4.5125C2.64959 4.74743 2.71366 4.98236 2.77773 5.21699C2.63788 5.13625 2.49804 5.0555 2.35819 4.97475C2.30261 4.7799 2.24702 4.58535 2.19173 4.3905C2.11478 4.12076 2.03784 3.85072 1.96089 3.58069C1.94071 3.50989 1.92432 3.43382 1.88951 3.36858C1.75961 3.12487 1.40473 3.08069 1.22071 3.28783C1.10544 3.41744 1.09725 3.57542 1.1423 3.73399C1.17653 3.85423 1.21076 3.97448 1.24499 4.09501C1.27191 4.1898 1.29882 4.2843 1.32574 4.37909C1.24236 4.33082 1.15868 4.28255 1.0753 4.23456C0.879579 4.12164 0.685317 4.0052 0.487837 3.89548C0.333363 3.80976 0.138223 3.84897 0.0516247 4.00051C-0.0364368 4.15118 0.0270494 4.3396 0.17889 4.43058C0.372567 4.54702 0.570632 4.65673 0.766357 4.76966C0.849737 4.81794 0.93341 4.86621 1.01708 4.91448C0.921708 4.93847 0.82604 4.96246 0.730664 4.98645C0.60925 5.01688 0.487836 5.04731 0.366715 5.07773C0.206976 5.11781 0.0741521 5.20383 0.0197353 5.36854C-0.0674485 5.63155 0.148171 5.9168 0.424058 5.90744C0.498076 5.9051 0.572095 5.88111 0.64348 5.86326C0.915857 5.79481 1.18794 5.72664 1.46002 5.65818C1.65633 5.60903 1.85294 5.55958 2.04925 5.51014C2.18909 5.59089 2.32894 5.67164 2.46878 5.75238C2.23327 5.81441 1.99776 5.87614 1.76253 5.93816C1.32896 6.05226 0.895377 6.16607 0.462091 6.28017C0.357646 6.30767 0.265196 6.3577 0.20405 6.45102C0.0642049 6.66401 0.175086 6.95774 0.418206 7.0303C0.554541 7.07097 0.704626 7.01158 0.836865 6.97676C1.32515 6.84833 1.81344 6.71989 2.30173 6.59145C2.55011 6.52621 2.7985 6.46068 3.04689 6.39544C3.16947 6.36326 3.29498 6.33575 3.41669 6.29948C3.8845 6.56951 4.3523 6.83984 4.82041 7.10988C4.27097 6.9358 3.72154 6.76173 3.1721 6.58736C3.08521 6.55986 2.99803 6.53206 2.91085 6.50456C2.85965 6.48847 2.79704 6.50749 2.76017 6.54494C2.35615 6.95628 1.95241 7.36792 1.54838 7.77955C1.49074 7.83807 1.4334 7.89687 1.37577 7.95538C1.36289 7.96826 1.35295 7.98347 1.34534 7.99956C1.35295 8.01565 1.36289 8.03057 1.37577 8.04374C1.4334 8.10225 1.49074 8.16106 1.54838 8.21957C1.95241 8.63121 2.35615 9.04255 2.76017 9.45419C2.79704 9.49163 2.85994 9.51065 2.91085 9.49456C2.99803 9.46706 3.08492 9.43927 3.1721 9.41176C3.72154 9.23769 4.27097 9.06361 4.82041 8.88954C4.3526 9.15957 3.88479 9.42961 3.41669 9.69994C3.29498 9.66366 3.16947 9.63616 3.04689 9.60398C2.7985 9.53874 2.55011 9.4732 2.30173 9.40796C1.81344 9.27953 1.32515 9.15109 0.836865 9.02265C0.704626 8.98784 0.554541 8.92845 0.418206 8.96912C0.175379 9.04167 0.0644975 9.3357 0.20405 9.54839C0.265196 9.64143 0.357646 9.69175 0.462091 9.71925C0.89567 9.83335 1.32925 9.94715 1.76253 10.0613C1.99805 10.1233 2.23356 10.185 2.46878 10.247C2.32894 10.3278 2.18909 10.4085 2.04925 10.4893C1.85294 10.4398 1.65633 10.3907 1.46002 10.3412C1.18794 10.2728 0.915564 10.2046 0.64348 10.1362C0.572095 10.1183 0.498076 10.0943 0.424058 10.092C0.147878 10.0826 -0.0677411 10.3679 0.0197353 10.6309C0.0744446 10.7956 0.206976 10.8816 0.366715 10.9217C0.488129 10.9521 0.609543 10.9825 0.730664 11.013C0.82604 11.037 0.921708 11.0609 1.01708 11.0849C0.93341 11.1332 0.85003 11.1815 0.766357 11.2295C0.570632 11.3424 0.372567 11.4524 0.17889 11.5688C0.027342 11.6598 -0.0364368 11.8485 0.0516247 11.9989C0.137931 12.1504 0.333071 12.1897 0.487837 12.1039C0.685317 11.9942 0.879579 11.8778 1.0753 11.7649C1.15898 11.7166 1.24236 11.6683 1.32574 11.6203C1.29882 11.7148 1.27191 11.8096 1.24499 11.9044C1.21076 12.0246 1.17653 12.1452 1.1423 12.2654C1.09725 12.4237 1.10514 12.5817 1.22071 12.7116C1.40502 12.9187 1.75961 12.8745 1.88951 12.6308C1.92432 12.5653 1.94071 12.4895 1.96089 12.4187C2.03784 12.1487 2.11478 11.879 2.19173 11.6089C2.24731 11.4141 2.30261 11.2195 2.35819 11.0247C2.49804 10.9439 2.63788 10.8632 2.77773 10.7824C2.71366 11.0174 2.64959 11.2523 2.58552 11.4869C2.46761 11.9193 2.34942 12.3517 2.23151 12.7844C2.20313 12.8886 2.20021 12.9936 2.25024 13.0934C2.36463 13.321 2.67475 13.3719 2.85906 13.1978C2.96234 13.1001 2.98603 12.9404 3.02202 12.8087C3.15484 12.3216 3.28796 11.8345 3.42078 11.3474C3.48837 11.0996 3.55595 10.8518 3.62382 10.604C3.65717 10.4817 3.69608 10.3594 3.72563 10.2356C4.19344 9.96559 4.66125 9.69526 5.12935 9.42522C4.70397 9.81404 4.27829 10.2029 3.8529 10.5917C3.78532 10.6531 3.71803 10.7148 3.65044 10.7766C3.61095 10.8126 3.59603 10.8766 3.61007 10.9272C3.76454 11.4828 3.91902 12.0384 4.07349 12.594C4.09543 12.673 4.11767 12.7523 4.13961 12.8315C4.14458 12.8491 4.15219 12.8655 4.16243 12.8798C4.18028 12.8813 4.19842 12.8798 4.21597 12.8754C4.29555 12.8549 4.37512 12.8345 4.4547 12.814C5.01291 12.67 5.57142 12.5261 6.12963 12.3819C6.18053 12.3687 6.22851 12.3239 6.23992 12.2716C6.25952 12.1823 6.27913 12.0931 6.29873 12.0042C6.42277 11.4413 6.54653 10.8784 6.67058 10.3155V11.9363C6.57842 12.0238 6.49182 12.1186 6.40259 12.2087C6.22178 12.3912 6.04098 12.5735 5.86018 12.7561C5.50471 13.1147 5.14954 13.4731 4.79408 13.8318C4.69782 13.9289 4.57143 14.0293 4.53837 14.1674C4.47986 14.414 4.6788 14.6571 4.93304 14.6425C5.04422 14.6361 5.13403 14.5811 5.20981 14.5044C5.52519 14.1861 5.84087 13.8675 6.15625 13.5492C6.32769 13.3763 6.49884 13.2034 6.67028 13.0305V13.515C6.52956 13.6604 6.38854 13.8058 6.24753 13.9512C6.0521 14.1528 5.85696 14.3543 5.66182 14.5559C5.61062 14.6089 5.55298 14.6609 5.51378 14.7238C5.36779 14.9585 5.50676 15.2876 5.77826 15.3435C5.94824 15.3786 6.08896 15.3066 6.20364 15.1884C6.29083 15.0986 6.37772 15.0088 6.4649 14.919C6.53336 14.8485 6.60182 14.7777 6.67028 14.7069V14.9962C6.67028 15.2224 6.66648 15.4485 6.67028 15.6747C6.67321 15.8514 6.80486 16.0009 6.97923 16C7.1536 16.0009 7.28525 15.8517 7.28818 15.6747C7.29198 15.4485 7.28818 15.2224 7.28818 14.9962V14.7069C7.35664 14.7777 7.4251 14.8482 7.49356 14.919C7.58045 15.0088 7.66763 15.0986 7.75482 15.1884C7.8695 15.3066 8.01022 15.3786 8.1802 15.3435C8.4517 15.2876 8.59067 14.9585 8.44468 14.7238C8.40548 14.6609 8.34784 14.6089 8.29664 14.5559C8.1015 14.3543 7.90607 14.1528 7.71093 13.9512C7.56992 13.8058 7.42919 13.6604 7.28818 13.515V13.0305C7.45962 13.2034 7.63077 13.3763 7.80221 13.5492C8.11759 13.8675 8.43327 14.1861 8.74865 14.5044C8.82472 14.5811 8.91424 14.6361 9.02542 14.6425C9.27965 14.6571 9.47889 14.414 9.42009 14.1674C9.38732 14.029 9.26064 13.9286 9.16438 13.8318C8.80892 13.4731 8.45375 13.1144 8.09828 12.7561C7.91748 12.5735 7.73668 12.3912 7.55587 12.2087C7.46664 12.1186 7.38004 12.0238 7.28788 11.9363V10.3155C7.41164 10.8784 7.53569 11.4413 7.65973 12.0042C7.67933 12.0934 7.69894 12.1826 7.71854 12.2716C7.72995 12.3239 7.77793 12.3687 7.82883 12.3819C8.38704 12.5258 8.94555 12.67 9.50376 12.814C9.58334 12.8345 9.66291 12.8549 9.7422 12.8754C9.75975 12.8798 9.77789 12.8813 9.79574 12.8798C9.80598 12.8652 9.81388 12.8488 9.81856 12.8315C9.8405 12.7525 9.86244 12.6733 9.88468 12.594C10.0391 12.0384 10.1936 11.4828 10.3481 10.9272C10.3621 10.8766 10.3472 10.8126 10.3077 10.7766C10.2401 10.7148 10.1729 10.6534 10.1053 10.5917C9.67988 10.2029 9.2542 9.81404 8.82881 9.42522C9.29662 9.69526 9.76443 9.96529 10.2325 10.2356C10.2621 10.3594 10.301 10.4817 10.3343 10.604C10.4019 10.8518 10.4695 11.0996 10.5371 11.3474C10.6699 11.8345 10.803 12.3216 10.9359 12.8087C10.9718 12.9404 10.9955 13.1004 11.0988 13.1978C11.2831 13.3719 11.5932 13.321 11.7076 13.0934C11.7577 12.9939 11.7547 12.8889 11.7264 12.7844C11.6085 12.352 11.4903 11.9196 11.3724 11.4869C11.3083 11.252 11.2442 11.0174 11.1801 10.7824C11.32 10.8632 11.4598 10.9439 11.5997 11.0247C11.6553 11.2195 11.7106 11.4141 11.7662 11.6089C11.8431 11.879 11.92 12.1487 11.997 12.4187C12.0172 12.4895 12.0336 12.5653 12.0684 12.6308C12.1983 12.8745 12.5531 12.9187 12.7372 12.7116C12.8524 12.5817 12.8606 12.424 12.8156 12.2654C12.7813 12.1452 12.7471 12.0249 12.7126 11.9044C12.6857 11.8099 12.6588 11.7151 12.6318 11.6203C12.7152 11.6686 12.7989 11.7169 12.8823 11.7649C13.078 11.8778 13.272 11.9945 13.4697 12.1039C13.6242 12.1897 13.8194 12.1504 13.906 11.9989C13.994 11.8482 13.9305 11.6595 13.7787 11.5688C13.585 11.4524 13.387 11.3427 13.1912 11.2295C13.1078 11.1812 13.0242 11.1329 12.9408 11.0849C13.0362 11.0609 13.1318 11.037 13.2272 11.013C13.3486 10.9825 13.4697 10.9521 13.5912 10.9217C13.7509 10.8816 13.8837 10.7956 13.9381 10.6309C14.0253 10.3679 13.81 10.0826 13.5338 10.092C13.4598 10.0946 13.3861 10.1183 13.3144 10.1362C13.0423 10.2046 12.7699 10.2728 12.4979 10.3412C12.3015 10.3907 12.1049 10.4398 11.9086 10.4893C11.7688 10.4085 11.6289 10.3278 11.4891 10.247C11.7246 10.185 11.9601 10.1233 12.1953 10.0613C12.6289 9.94715 13.0625 9.83335 13.4958 9.71925C13.6002 9.69175 13.6927 9.64172 13.7538 9.54839C13.8937 9.3354 13.7828 9.04138 13.54 8.96912C13.4039 8.92845 13.2535 8.98784 13.1213 9.02265C12.633 9.15109 12.1447 9.27953 11.6564 9.40796C11.4081 9.4732 11.1597 9.53874 10.9113 9.60398C10.7887 9.63616 10.6632 9.66366 10.5415 9.69994C10.0737 9.4299 9.60586 9.15957 9.13776 8.88954C9.6872 9.06361 10.2366 9.23769 10.7861 9.41176C10.8732 9.43927 10.9601 9.46706 11.0473 9.49456C11.0985 9.51065 11.1611 9.49163 11.198 9.45419C11.6017 9.04255 12.0058 8.63121 12.4095 8.21957C12.4671 8.16106 12.5245 8.10225 12.5821 8.04374C12.595 8.03057 12.6052 8.01565 12.6125 7.99956C12.6049 7.98347 12.595 7.96855 12.5821 7.95538C12.5245 7.89687 12.4671 7.83807 12.4095 7.77955C12.0058 7.36821 11.6017 6.95657 11.198 6.54494C11.1611 6.50749 11.0982 6.48847 11.0473 6.50456C10.9604 6.53206 10.8732 6.55986 10.7861 6.58736C10.2366 6.76143 9.6872 6.93551 9.13776 7.10988C9.60557 6.83984 10.0734 6.56951 10.5415 6.29948C10.6632 6.33575 10.7887 6.36326 10.9113 6.39544C11.1597 6.46068 11.4081 6.52621 11.6564 6.59145C12.1447 6.71989 12.633 6.84833 13.1213 6.97676C13.2535 7.01158 13.4036 7.07097 13.54 7.0303C13.7828 6.95774 13.8937 6.66372 13.7538 6.45102C13.6927 6.35799 13.6002 6.30767 13.4958 6.28017C13.0622 6.16607 12.6286 6.05197 12.1953 5.93816C11.9598 5.87614 11.7246 5.81441 11.4891 5.75238C11.6289 5.67164 11.7688 5.59089 11.9086 5.51014C12.1049 5.55929 12.3015 5.60873 12.4979 5.65818C12.7699 5.72634 13.0423 5.79481 13.3144 5.86326C13.3858 5.88111 13.4598 5.9051 13.5338 5.90744C13.81 5.9168 14.0253 5.63155 13.9381 5.36854C13.8834 5.20383 13.7509 5.11781 13.5912 5.07773C13.4697 5.04731 13.3486 5.01688 13.2272 4.98645C13.1318 4.96246 13.0362 4.93847 12.9408 4.91448C13.0242 4.86621 13.1078 4.81794 13.1912 4.76966C13.387 4.65673 13.585 4.54673 13.7787 4.43058C13.9302 4.3396 13.994 4.15089 13.906 4.00051C13.8197 3.84897 13.6245 3.80976 13.4697 3.89548C13.272 4.0052 13.078 4.12164 12.8823 4.23456C12.7989 4.28284 12.7152 4.33111 12.6318 4.37909C12.6588 4.28459 12.6857 4.1898 12.7126 4.09501C12.7468 3.97477 12.7811 3.85423 12.8156 3.73399C12.8606 3.57571 12.8527 3.41773 12.7372 3.28783C12.5529 3.08069 12.1983 3.12487 12.0684 3.36858C12.0336 3.43382 12.0172 3.50989 11.997 3.58069C11.92 3.85072 11.8431 4.12047 11.7662 4.3905C11.7106 4.58535 11.655 4.7799 11.5997 4.97475C11.4598 5.0555 11.32 5.13625 11.1801 5.21699C11.2442 4.98206 11.3083 4.74743 11.3724 4.5125C11.4903 4.08009 11.6085 3.64768 11.7264 3.21527C11.7547 3.11112 11.7577 3.00609 11.7076 2.90662C11.5932 2.67901 11.2831 2.6281 11.0988 2.80217C10.9955 2.8996 10.9718 3.05963 10.9359 3.19128C10.803 3.6784 10.6699 4.16523 10.5371 4.65235C10.4695 4.90015 10.4019 5.14795 10.3343 5.39575C10.301 5.51804 10.2621 5.64033 10.2325 5.76409C9.76472 6.03412 9.29662 6.30445 8.82881 6.57449C9.25449 6.18567 9.67988 5.79685 10.1053 5.40833C10.1729 5.3466 10.2401 5.28516 10.3077 5.22343C10.3472 5.18744 10.3621 5.12337 10.3481 5.07276C10.1936 4.51718 10.0391 3.9616 9.88468 3.40603C9.86273 3.32703 9.84079 3.24775 9.81856 3.16876C9.81358 3.1512 9.80568 3.13482 9.79574 3.12019C9.77789 3.11873 9.75975 3.12019 9.7422 3.12458C9.66262 3.14506 9.58304 3.16554 9.50376 3.18602C8.94526 3.32996 8.38704 3.47419 7.82883 3.61813C7.77793 3.6313 7.72995 3.67606 7.71854 3.72843C7.69894 3.81766 7.67933 3.90689 7.65973 3.99613C7.53569 4.55902 7.41193 5.12191 7.28788 5.6848V4.064C7.38004 3.97652 7.46664 3.88173 7.55587 3.79162C7.73668 3.60906 7.91748 3.4268 8.09828 3.24424C8.45375 2.88556 8.80892 2.52687 9.16438 2.16819C9.26064 2.07106 9.38703 1.97071 9.42009 1.83262C9.47889 1.58599 9.27965 1.34287 9.02542 1.3575C8.91424 1.36393 8.82443 1.41894 8.74865 1.49559C8.43298 1.8139 8.11759 2.1325 7.80221 2.45081C7.63077 2.62371 7.45962 2.79662 7.28818 2.96952V2.48504C7.42919 2.33963 7.56992 2.19423 7.71093 2.04882C7.90636 1.84725 8.1015 1.64567 8.29664 1.4441C8.34784 1.39114 8.40548 1.33907 8.44468 1.27616C8.59067 1.04182 8.4517 0.712395 8.1802 0.656516C8.01022 0.621408 7.8695 0.693379 7.75482 0.811574C7.66792 0.901391 7.58074 0.991208 7.49356 1.08103C7.4251 1.15183 7.35664 1.22233 7.28818 1.29313V1.00379C7.28818 0.77793 7.29198 0.551486 7.28818 0.325334C7.28525 0.148333 7.1536 -0.000873837 6.97923 3.85258e-06ZM4.47226 3.65646C4.58343 3.68513 4.69431 3.7138 4.80548 3.74247C5.11034 3.82117 5.41519 3.89987 5.72004 3.97828C5.75983 3.98852 5.79991 3.99876 5.8397 4.009C5.87861 4.186 5.91752 4.363 5.95672 4.53971C6.00704 4.76791 6.05707 4.99581 6.10739 5.22401C6.08428 5.20909 6.0597 5.19563 6.0322 5.1851C5.88826 5.12893 5.71009 5.17984 5.61267 5.29803C5.56644 5.35391 5.53836 5.41798 5.52753 5.4841C5.46492 5.4604 5.39559 5.4528 5.32391 5.46479C5.17265 5.48995 5.03983 5.61868 5.01642 5.7714C5.01203 5.80066 5.01116 5.82845 5.01262 5.85595C4.8403 5.69826 4.66769 5.54086 4.49537 5.38317C4.36167 5.26088 4.22796 5.13888 4.09397 5.01659C4.10509 4.9768 4.11591 4.93701 4.12703 4.89751C4.21129 4.59442 4.29555 4.29103 4.3801 3.98764C4.41082 3.87705 4.44154 3.76646 4.47226 3.65617V3.65646ZM9.4865 3.65646C9.51722 3.76705 9.54794 3.87735 9.57865 3.98793C9.66291 4.29103 9.74746 4.59442 9.83172 4.89781C9.84284 4.93759 9.85366 4.97709 9.86478 5.01688C9.73108 5.13917 9.59709 5.26117 9.46338 5.38346C9.29107 5.54115 9.11845 5.69855 8.94613 5.85624C8.9476 5.82874 8.94672 5.80095 8.94233 5.77169C8.91892 5.61897 8.7861 5.48995 8.63485 5.46509C8.56346 5.45309 8.49383 5.46099 8.43122 5.4844C8.4204 5.41857 8.39231 5.3545 8.34638 5.29833C8.24895 5.18013 8.07108 5.12922 7.92684 5.1854C7.89934 5.19622 7.87477 5.20939 7.85165 5.22431C7.90197 4.99611 7.9523 4.7682 8.00232 4.54C8.04123 4.363 8.08015 4.186 8.11906 4.00929C8.15914 3.99905 8.19893 3.98881 8.23872 3.97857C8.54357 3.89987 8.84842 3.82147 9.15298 3.74277C9.26415 3.71409 9.37503 3.68542 9.4862 3.65675L9.4865 3.65646ZM11.9935 7.99868C11.913 8.0806 11.8329 8.16252 11.7524 8.24414C11.5321 8.46883 11.3115 8.69352 11.0909 8.91821C11.062 8.94776 11.033 8.97702 11.0043 9.00656C10.8317 8.95185 10.6588 8.89715 10.4862 8.84244C10.2635 8.77193 10.0409 8.70142 9.81826 8.63062C9.84284 8.61804 9.86654 8.60341 9.88965 8.58498C10.0102 8.48814 10.0552 8.3088 10.0017 8.16515C9.97625 8.09728 9.9347 8.04081 9.88292 7.99839C9.9347 7.95597 9.97625 7.8998 10.0017 7.83192C10.0555 7.68857 10.0105 7.50893 9.88965 7.41209C9.86654 7.39366 9.84284 7.37874 9.81826 7.36645C10.0409 7.29595 10.2635 7.22544 10.4862 7.15493C10.6588 7.10022 10.8317 7.04551 11.0043 6.9908C11.0333 7.02035 11.062 7.04961 11.0909 7.07916C11.3112 7.30385 11.5318 7.52853 11.7524 7.75322C11.8329 7.83514 11.913 7.91706 11.9935 7.99868ZM9.4865 12.3412C9.37532 12.3125 9.26444 12.2839 9.15327 12.2552C8.84842 12.1765 8.54357 12.0981 8.23901 12.0194C8.19922 12.0091 8.15914 11.9989 8.11935 11.9884C8.08044 11.8114 8.04153 11.6344 8.00262 11.4577C7.9523 11.2295 7.90198 11.0016 7.85195 10.7734C7.87506 10.7883 7.89963 10.8014 7.92714 10.8123C8.07108 10.8684 8.24925 10.8175 8.34667 10.6993C8.3926 10.6435 8.42098 10.5791 8.43151 10.5133C8.49412 10.537 8.56346 10.5446 8.63514 10.5326C8.78639 10.5074 8.91922 10.3787 8.94262 10.226C8.94701 10.1967 8.94789 10.1689 8.94643 10.1414C9.11875 10.2991 9.29136 10.4565 9.46368 10.6142C9.59738 10.7365 9.73108 10.8588 9.86507 10.9808C9.85396 11.0206 9.84313 11.0604 9.83201 11.0999C9.74776 11.4032 9.6635 11.7063 9.57895 12.0097C9.54823 12.1203 9.51751 12.2306 9.48679 12.3412H9.4865ZM4.47226 12.3412C4.44154 12.2306 4.41082 12.1203 4.3801 12.0097C4.29584 11.7063 4.21158 11.4032 4.12703 11.0999C4.11591 11.0601 4.10509 11.0203 4.09397 10.9808C4.22767 10.8585 4.36137 10.7362 4.49537 10.6142C4.66769 10.4565 4.8403 10.2991 5.01262 10.1414C5.01116 10.1689 5.01203 10.1967 5.01642 10.226C5.03983 10.3787 5.17294 10.5077 5.32391 10.5326C5.39529 10.5446 5.46492 10.5367 5.52753 10.5133C5.53836 10.5791 5.56644 10.6435 5.61267 10.6993C5.71009 10.8175 5.88797 10.8684 6.0322 10.8123C6.0597 10.8014 6.08428 10.7883 6.10739 10.7734C6.05707 11.0016 6.00704 11.2295 5.95672 11.4577C5.91781 11.6347 5.8789 11.8117 5.8397 11.9884C5.79991 11.9986 5.75983 12.0088 5.72004 12.0194C5.41519 12.0981 5.11034 12.1765 4.80548 12.2552C4.69431 12.2839 4.58343 12.3125 4.47226 12.3412ZM1.96528 7.99868C2.04574 7.91677 2.1259 7.83514 2.20635 7.75322C2.42665 7.52853 2.64725 7.30385 2.86784 7.07916C2.8968 7.04961 2.92577 7.02035 2.95444 6.9908C3.12705 7.04551 3.29995 7.10022 3.47257 7.15493C3.69521 7.22544 3.91785 7.29595 4.14049 7.36645C4.11591 7.37903 4.09222 7.39366 4.0691 7.41209C3.94857 7.50893 3.90351 7.68827 3.95734 7.83192C3.9828 7.8998 4.02434 7.95626 4.07613 7.99839C4.02434 8.04081 3.98309 8.09728 3.95734 8.16515C3.90351 8.30851 3.94857 8.48814 4.0691 8.58498C4.09222 8.60341 4.11591 8.61804 4.14049 8.63062C3.91785 8.70113 3.69521 8.77164 3.47257 8.84244C3.29995 8.89715 3.12705 8.95185 2.95444 9.00656C2.92547 8.97702 2.8968 8.94776 2.86784 8.91821C2.64754 8.69352 2.42695 8.46883 2.20635 8.24414C2.1259 8.16223 2.04574 8.08031 1.96528 7.99868ZM5.84964 6.04173C6.01553 6.212 6.18112 6.38256 6.347 6.55284C6.36982 6.57624 6.39264 6.59965 6.41546 6.62305C6.46286 6.83779 6.50996 7.05253 6.55735 7.26728C6.39498 7.11895 6.23261 6.97062 6.07024 6.82229C6.06146 6.79069 6.05239 6.75939 6.04361 6.72779C5.97896 6.499 5.9143 6.27022 5.84964 6.04144V6.04173ZM8.1094 6.04173C8.04475 6.27051 7.98009 6.4993 7.91543 6.72808C7.90636 6.75939 7.89759 6.79098 7.88881 6.82258C7.72644 6.97091 7.56406 7.11924 7.40169 7.26757C7.44909 7.05283 7.49619 6.83809 7.54358 6.62334C7.5664 6.59994 7.58922 6.57653 7.61204 6.55313C7.77793 6.38286 7.94381 6.21229 8.1094 6.04202V6.04173ZM9.23928 7.99868C9.00874 8.0572 8.7782 8.11542 8.54795 8.17393C8.51636 8.18212 8.48447 8.19002 8.45287 8.19792C8.2431 8.13151 8.03363 8.06509 7.82386 7.99868C8.03363 7.93227 8.2431 7.86586 8.45287 7.79945C8.48447 7.80764 8.51636 7.81554 8.54795 7.82344C8.77849 7.88195 9.00903 7.94017 9.23928 7.99868ZM8.1094 9.95564C7.94352 9.78537 7.77764 9.6148 7.61204 9.44453C7.58922 9.42113 7.5664 9.39772 7.54358 9.37432C7.49619 9.15957 7.44909 8.94483 7.40169 8.73009C7.56406 8.87842 7.72644 9.02675 7.88881 9.17508C7.89788 9.20638 7.90666 9.23798 7.91543 9.26929C7.98009 9.49807 8.04475 9.72686 8.1094 9.95564ZM5.84964 9.95564C5.9143 9.72686 5.97896 9.49807 6.04361 9.26929C6.05268 9.23798 6.06146 9.20638 6.07024 9.17508C6.23261 9.02675 6.39498 8.87842 6.55735 8.73009C6.50996 8.94483 6.46286 9.15957 6.41546 9.37432C6.39264 9.39772 6.36982 9.42113 6.347 9.44453C6.18112 9.6148 6.01553 9.78537 5.84964 9.95564ZM4.71976 7.99868C4.9503 7.94046 5.18084 7.88195 5.41109 7.82344C5.44269 7.81554 5.47458 7.80735 5.50617 7.79945C5.71594 7.86586 5.92542 7.93227 6.13518 7.99868C5.92542 8.06509 5.71594 8.13151 5.50617 8.19792C5.47458 8.19002 5.44269 8.18183 5.41109 8.17393C5.18055 8.11542 4.95001 8.0572 4.71976 7.99868Z" fill="white"/>
</svg>
