<svg viewBox="0 0 20 20" fill="none" xmlns="http://www.w3.org/2000/svg"><path fill-rule="evenodd" clip-rule="evenodd" d="M6.837 8.063c.391 0 .708.317.708.708v4.688a.708.708 0 1 1-1.416 0V8.77c0-.391.317-.708.708-.708ZM10.026 5.82c.39 0 .708.317.708.708v6.93a.708.708 0 1 1-1.417 0v-6.93c0-.391.318-.708.709-.708ZM13.162 10.54c.392 0 .709.317.709.708v2.21a.708.708 0 0 1-1.417 0v-2.21c0-.39.317-.708.708-.708Z" fill="#282828"/><path fill-rule="evenodd" clip-rule="evenodd" d="M3.627 3.753c.776-.833 1.88-1.295 3.17-1.295h6.405c1.294 0 2.397.462 3.173 1.296.771.827 1.166 1.965 1.166 3.23v6.033c0 1.264-.395 2.402-1.166 3.23-.776.833-1.88 1.295-3.173 1.295H6.798c-1.295 0-2.398-.462-3.174-1.296-.77-.827-1.166-1.965-1.166-3.23V6.984c0-1.265.397-2.402 1.169-3.23Zm1.036.966c-.486.522-.788 1.293-.788 2.264v6.034c0 .972.3 1.743.786 2.264.48.516 1.192.844 2.137.844h6.404c.944 0 1.656-.328 2.136-.844.486-.521.787-1.292.787-2.264V6.983c0-.972-.301-1.743-.787-2.264-.48-.516-1.192-.844-2.136-.844H6.798c-.941 0-1.654.328-2.135.844Z" fill="currentColor"/></svg>
